M48
; DRILL file {KiCad 8.0.5} date 2024-09-24T01:03:54+0200
; FORMAT={-:-/ absolute / inch / decimal}
; #@! TF.CreationDate,2024-09-24T01:03:54+02:00
; #@! TF.GenerationSoftware,Kicad,Pcbnew,8.0.5
; #@! TF.FileFunction,Plated,1,2,PTH
FMAT,2
INCH
; #@! TA.AperFunction,Plated,PTH,ComponentDrill
T1C0.0394
%
G90
G05
T1
X4.3688Y-1.6496
X4.3688Y-1.7496
X4.3688Y-1.8496
X4.3688Y-1.9496
X4.3688Y-2.0496
X4.3688Y-2.1496
X4.3688Y-2.2496
X4.3688Y-2.3496
X4.3688Y-2.4496
X4.3688Y-2.5496
X4.3688Y-2.6496
X4.3688Y-2.7496
X4.3688Y-2.8496
X4.3688Y-2.9496
X4.3688Y-3.0496
X4.4773Y-1.6193
X4.4773Y-1.7193
X4.4773Y-1.8193
X4.4773Y-1.9193
X4.4773Y-2.0193
X4.4774Y-2.4457
X4.4774Y-2.5457
X4.4774Y-2.6457
X4.4774Y-2.7457
X4.4774Y-2.8457
X4.5773Y-1.6193
X4.5773Y-1.7193
X4.5773Y-1.8193
X4.5773Y-1.9193
X4.5773Y-2.0193
X4.5774Y-2.4457
X4.5774Y-2.5457
X4.5774Y-2.6457
X4.5774Y-2.7457
X4.5774Y-2.8457
X4.9807Y-1.624
X4.9807Y-1.724
X4.9807Y-1.824
X4.9807Y-1.924
X4.9807Y-2.024
X4.9815Y-2.4494
X4.9815Y-2.5494
X4.9815Y-2.6494
X4.9815Y-2.7494
X4.9815Y-2.8494
X5.0807Y-1.624
X5.0807Y-1.724
X5.0807Y-1.824
X5.0807Y-1.924
X5.0807Y-2.024
X5.0815Y-2.4494
X5.0815Y-2.5494
X5.0815Y-2.6494
X5.0815Y-2.7494
X5.0815Y-2.8494
X5.1916Y-3.1235
X5.2916Y-3.1235
X5.4688Y-1.6496
X5.4688Y-1.7496
X5.4688Y-1.8496
X5.4688Y-1.9496
X5.4688Y-2.0496
X5.4688Y-2.1496
X5.4688Y-2.2496
X5.4688Y-2.3496
X5.4688Y-2.4496
X5.4688Y-2.5496
X5.4688Y-2.6496
X5.4688Y-2.7496
X5.4688Y-2.8496
X5.4688Y-2.9496
X5.4688Y-3.0496
M30
