%TF.GenerationSoftware,KiCad,Pcbnew,8.0.5*%
%TF.CreationDate,2024-09-24T01:03:51+02:00*%
%TF.ProjectId,RRF_MOT_EXP_ADAPTER,5252465f-4d4f-4545-9f45-58505f414441,rev?*%
%TF.SameCoordinates,Original*%
%TF.FileFunction,Legend,Bot*%
%TF.FilePolarity,Positive*%
%FSLAX46Y46*%
G04 Gerber Fmt 4.6, Leading zero omitted, Abs format (unit mm)*
G04 Created by KiCad (PCBNEW 8.0.5) date 2024-09-24 01:03:51*
%MOMM*%
%LPD*%
G01*
G04 APERTURE LIST*
%ADD10C,0.150000*%
%ADD11C,0.120000*%
G04 APERTURE END LIST*
D10*
X137369819Y-42086779D02*
X136369819Y-42086779D01*
X136750771Y-42086779D02*
X136703152Y-42182017D01*
X136703152Y-42182017D02*
X136703152Y-42372493D01*
X136703152Y-42372493D02*
X136750771Y-42467731D01*
X136750771Y-42467731D02*
X136798390Y-42515350D01*
X136798390Y-42515350D02*
X136893628Y-42562969D01*
X136893628Y-42562969D02*
X137179342Y-42562969D01*
X137179342Y-42562969D02*
X137274580Y-42515350D01*
X137274580Y-42515350D02*
X137322200Y-42467731D01*
X137322200Y-42467731D02*
X137369819Y-42372493D01*
X137369819Y-42372493D02*
X137369819Y-42182017D01*
X137369819Y-42182017D02*
X137322200Y-42086779D01*
X136703152Y-42896303D02*
X137369819Y-43134398D01*
X136703152Y-43372493D02*
X137369819Y-43134398D01*
X137369819Y-43134398D02*
X137607914Y-43039160D01*
X137607914Y-43039160D02*
X137655533Y-42991541D01*
X137655533Y-42991541D02*
X137703152Y-42896303D01*
X137369819Y-44515351D02*
X136369819Y-44515351D01*
X136369819Y-44515351D02*
X137084104Y-44848684D01*
X137084104Y-44848684D02*
X136369819Y-45182017D01*
X136369819Y-45182017D02*
X137369819Y-45182017D01*
X137369819Y-45658208D02*
X136703152Y-45658208D01*
X136369819Y-45658208D02*
X136417438Y-45610589D01*
X136417438Y-45610589D02*
X136465057Y-45658208D01*
X136465057Y-45658208D02*
X136417438Y-45705827D01*
X136417438Y-45705827D02*
X136369819Y-45658208D01*
X136369819Y-45658208D02*
X136465057Y-45658208D01*
X137369819Y-46134398D02*
X136369819Y-46134398D01*
X136988866Y-46229636D02*
X137369819Y-46515350D01*
X136703152Y-46515350D02*
X137084104Y-46134398D01*
X137369819Y-47372493D02*
X136846009Y-47372493D01*
X136846009Y-47372493D02*
X136750771Y-47324874D01*
X136750771Y-47324874D02*
X136703152Y-47229636D01*
X136703152Y-47229636D02*
X136703152Y-47039160D01*
X136703152Y-47039160D02*
X136750771Y-46943922D01*
X137322200Y-47372493D02*
X137369819Y-47277255D01*
X137369819Y-47277255D02*
X137369819Y-47039160D01*
X137369819Y-47039160D02*
X137322200Y-46943922D01*
X137322200Y-46943922D02*
X137226961Y-46896303D01*
X137226961Y-46896303D02*
X137131723Y-46896303D01*
X137131723Y-46896303D02*
X137036485Y-46943922D01*
X137036485Y-46943922D02*
X136988866Y-47039160D01*
X136988866Y-47039160D02*
X136988866Y-47277255D01*
X136988866Y-47277255D02*
X136941247Y-47372493D01*
X137322200Y-48562970D02*
X137369819Y-48705827D01*
X137369819Y-48705827D02*
X137369819Y-48943922D01*
X137369819Y-48943922D02*
X137322200Y-49039160D01*
X137322200Y-49039160D02*
X137274580Y-49086779D01*
X137274580Y-49086779D02*
X137179342Y-49134398D01*
X137179342Y-49134398D02*
X137084104Y-49134398D01*
X137084104Y-49134398D02*
X136988866Y-49086779D01*
X136988866Y-49086779D02*
X136941247Y-49039160D01*
X136941247Y-49039160D02*
X136893628Y-48943922D01*
X136893628Y-48943922D02*
X136846009Y-48753446D01*
X136846009Y-48753446D02*
X136798390Y-48658208D01*
X136798390Y-48658208D02*
X136750771Y-48610589D01*
X136750771Y-48610589D02*
X136655533Y-48562970D01*
X136655533Y-48562970D02*
X136560295Y-48562970D01*
X136560295Y-48562970D02*
X136465057Y-48610589D01*
X136465057Y-48610589D02*
X136417438Y-48658208D01*
X136417438Y-48658208D02*
X136369819Y-48753446D01*
X136369819Y-48753446D02*
X136369819Y-48991541D01*
X136369819Y-48991541D02*
X136417438Y-49134398D01*
X137322200Y-49991541D02*
X137369819Y-49896303D01*
X137369819Y-49896303D02*
X137369819Y-49705827D01*
X137369819Y-49705827D02*
X137322200Y-49610589D01*
X137322200Y-49610589D02*
X137274580Y-49562970D01*
X137274580Y-49562970D02*
X137179342Y-49515351D01*
X137179342Y-49515351D02*
X136893628Y-49515351D01*
X136893628Y-49515351D02*
X136798390Y-49562970D01*
X136798390Y-49562970D02*
X136750771Y-49610589D01*
X136750771Y-49610589D02*
X136703152Y-49705827D01*
X136703152Y-49705827D02*
X136703152Y-49896303D01*
X136703152Y-49896303D02*
X136750771Y-49991541D01*
X137369819Y-50420113D02*
X136369819Y-50420113D01*
X137369819Y-50848684D02*
X136846009Y-50848684D01*
X136846009Y-50848684D02*
X136750771Y-50801065D01*
X136750771Y-50801065D02*
X136703152Y-50705827D01*
X136703152Y-50705827D02*
X136703152Y-50562970D01*
X136703152Y-50562970D02*
X136750771Y-50467732D01*
X136750771Y-50467732D02*
X136798390Y-50420113D01*
X137369819Y-51324875D02*
X136703152Y-51324875D01*
X136798390Y-51324875D02*
X136750771Y-51372494D01*
X136750771Y-51372494D02*
X136703152Y-51467732D01*
X136703152Y-51467732D02*
X136703152Y-51610589D01*
X136703152Y-51610589D02*
X136750771Y-51705827D01*
X136750771Y-51705827D02*
X136846009Y-51753446D01*
X136846009Y-51753446D02*
X137369819Y-51753446D01*
X136846009Y-51753446D02*
X136750771Y-51801065D01*
X136750771Y-51801065D02*
X136703152Y-51896303D01*
X136703152Y-51896303D02*
X136703152Y-52039160D01*
X136703152Y-52039160D02*
X136750771Y-52134399D01*
X136750771Y-52134399D02*
X136846009Y-52182018D01*
X136846009Y-52182018D02*
X137369819Y-52182018D01*
X137369819Y-52658208D02*
X136703152Y-52658208D01*
X136369819Y-52658208D02*
X136417438Y-52610589D01*
X136417438Y-52610589D02*
X136465057Y-52658208D01*
X136465057Y-52658208D02*
X136417438Y-52705827D01*
X136417438Y-52705827D02*
X136369819Y-52658208D01*
X136369819Y-52658208D02*
X136465057Y-52658208D01*
X136703152Y-52991541D02*
X136703152Y-53372493D01*
X136369819Y-53134398D02*
X137226961Y-53134398D01*
X137226961Y-53134398D02*
X137322200Y-53182017D01*
X137322200Y-53182017D02*
X137369819Y-53277255D01*
X137369819Y-53277255D02*
X137369819Y-53372493D01*
X136703152Y-53562970D02*
X136703152Y-53943922D01*
X136369819Y-53705827D02*
X137226961Y-53705827D01*
X137226961Y-53705827D02*
X137322200Y-53753446D01*
X137322200Y-53753446D02*
X137369819Y-53848684D01*
X137369819Y-53848684D02*
X137369819Y-53943922D01*
X137750771Y-55324875D02*
X137703152Y-55277256D01*
X137703152Y-55277256D02*
X137560295Y-55182018D01*
X137560295Y-55182018D02*
X137465057Y-55134399D01*
X137465057Y-55134399D02*
X137322200Y-55086780D01*
X137322200Y-55086780D02*
X137084104Y-55039161D01*
X137084104Y-55039161D02*
X136893628Y-55039161D01*
X136893628Y-55039161D02*
X136655533Y-55086780D01*
X136655533Y-55086780D02*
X136512676Y-55134399D01*
X136512676Y-55134399D02*
X136417438Y-55182018D01*
X136417438Y-55182018D02*
X136274580Y-55277256D01*
X136274580Y-55277256D02*
X136226961Y-55324875D01*
X136465057Y-55658209D02*
X136417438Y-55705828D01*
X136417438Y-55705828D02*
X136369819Y-55801066D01*
X136369819Y-55801066D02*
X136369819Y-56039161D01*
X136369819Y-56039161D02*
X136417438Y-56134399D01*
X136417438Y-56134399D02*
X136465057Y-56182018D01*
X136465057Y-56182018D02*
X136560295Y-56229637D01*
X136560295Y-56229637D02*
X136655533Y-56229637D01*
X136655533Y-56229637D02*
X136798390Y-56182018D01*
X136798390Y-56182018D02*
X137369819Y-55610590D01*
X137369819Y-55610590D02*
X137369819Y-56229637D01*
X136369819Y-56848685D02*
X136369819Y-56943923D01*
X136369819Y-56943923D02*
X136417438Y-57039161D01*
X136417438Y-57039161D02*
X136465057Y-57086780D01*
X136465057Y-57086780D02*
X136560295Y-57134399D01*
X136560295Y-57134399D02*
X136750771Y-57182018D01*
X136750771Y-57182018D02*
X136988866Y-57182018D01*
X136988866Y-57182018D02*
X137179342Y-57134399D01*
X137179342Y-57134399D02*
X137274580Y-57086780D01*
X137274580Y-57086780D02*
X137322200Y-57039161D01*
X137322200Y-57039161D02*
X137369819Y-56943923D01*
X137369819Y-56943923D02*
X137369819Y-56848685D01*
X137369819Y-56848685D02*
X137322200Y-56753447D01*
X137322200Y-56753447D02*
X137274580Y-56705828D01*
X137274580Y-56705828D02*
X137179342Y-56658209D01*
X137179342Y-56658209D02*
X136988866Y-56610590D01*
X136988866Y-56610590D02*
X136750771Y-56610590D01*
X136750771Y-56610590D02*
X136560295Y-56658209D01*
X136560295Y-56658209D02*
X136465057Y-56705828D01*
X136465057Y-56705828D02*
X136417438Y-56753447D01*
X136417438Y-56753447D02*
X136369819Y-56848685D01*
X136465057Y-57562971D02*
X136417438Y-57610590D01*
X136417438Y-57610590D02*
X136369819Y-57705828D01*
X136369819Y-57705828D02*
X136369819Y-57943923D01*
X136369819Y-57943923D02*
X136417438Y-58039161D01*
X136417438Y-58039161D02*
X136465057Y-58086780D01*
X136465057Y-58086780D02*
X136560295Y-58134399D01*
X136560295Y-58134399D02*
X136655533Y-58134399D01*
X136655533Y-58134399D02*
X136798390Y-58086780D01*
X136798390Y-58086780D02*
X137369819Y-57515352D01*
X137369819Y-57515352D02*
X137369819Y-58134399D01*
X136703152Y-58991542D02*
X137369819Y-58991542D01*
X136322200Y-58753447D02*
X137036485Y-58515352D01*
X137036485Y-58515352D02*
X137036485Y-59134399D01*
X137750771Y-59420114D02*
X137703152Y-59467733D01*
X137703152Y-59467733D02*
X137560295Y-59562971D01*
X137560295Y-59562971D02*
X137465057Y-59610590D01*
X137465057Y-59610590D02*
X137322200Y-59658209D01*
X137322200Y-59658209D02*
X137084104Y-59705828D01*
X137084104Y-59705828D02*
X136893628Y-59705828D01*
X136893628Y-59705828D02*
X136655533Y-59658209D01*
X136655533Y-59658209D02*
X136512676Y-59610590D01*
X136512676Y-59610590D02*
X136417438Y-59562971D01*
X136417438Y-59562971D02*
X136274580Y-59467733D01*
X136274580Y-59467733D02*
X136226961Y-59420114D01*
X135869819Y-42658207D02*
X135393628Y-42324874D01*
X135869819Y-42086779D02*
X134869819Y-42086779D01*
X134869819Y-42086779D02*
X134869819Y-42467731D01*
X134869819Y-42467731D02*
X134917438Y-42562969D01*
X134917438Y-42562969D02*
X134965057Y-42610588D01*
X134965057Y-42610588D02*
X135060295Y-42658207D01*
X135060295Y-42658207D02*
X135203152Y-42658207D01*
X135203152Y-42658207D02*
X135298390Y-42610588D01*
X135298390Y-42610588D02*
X135346009Y-42562969D01*
X135346009Y-42562969D02*
X135393628Y-42467731D01*
X135393628Y-42467731D02*
X135393628Y-42086779D01*
X135869819Y-43658207D02*
X135393628Y-43324874D01*
X135869819Y-43086779D02*
X134869819Y-43086779D01*
X134869819Y-43086779D02*
X134869819Y-43467731D01*
X134869819Y-43467731D02*
X134917438Y-43562969D01*
X134917438Y-43562969D02*
X134965057Y-43610588D01*
X134965057Y-43610588D02*
X135060295Y-43658207D01*
X135060295Y-43658207D02*
X135203152Y-43658207D01*
X135203152Y-43658207D02*
X135298390Y-43610588D01*
X135298390Y-43610588D02*
X135346009Y-43562969D01*
X135346009Y-43562969D02*
X135393628Y-43467731D01*
X135393628Y-43467731D02*
X135393628Y-43086779D01*
X135346009Y-44420112D02*
X135346009Y-44086779D01*
X135869819Y-44086779D02*
X134869819Y-44086779D01*
X134869819Y-44086779D02*
X134869819Y-44562969D01*
X134869819Y-45610589D02*
X135869819Y-45848684D01*
X135869819Y-45848684D02*
X135155533Y-46039160D01*
X135155533Y-46039160D02*
X135869819Y-46229636D01*
X135869819Y-46229636D02*
X134869819Y-46467732D01*
X135869819Y-46848684D02*
X135203152Y-46848684D01*
X134869819Y-46848684D02*
X134917438Y-46801065D01*
X134917438Y-46801065D02*
X134965057Y-46848684D01*
X134965057Y-46848684D02*
X134917438Y-46896303D01*
X134917438Y-46896303D02*
X134869819Y-46848684D01*
X134869819Y-46848684D02*
X134965057Y-46848684D01*
X135346009Y-47658207D02*
X135346009Y-47324874D01*
X135869819Y-47324874D02*
X134869819Y-47324874D01*
X134869819Y-47324874D02*
X134869819Y-47801064D01*
X135869819Y-48182017D02*
X135203152Y-48182017D01*
X134869819Y-48182017D02*
X134917438Y-48134398D01*
X134917438Y-48134398D02*
X134965057Y-48182017D01*
X134965057Y-48182017D02*
X134917438Y-48229636D01*
X134917438Y-48229636D02*
X134869819Y-48182017D01*
X134869819Y-48182017D02*
X134965057Y-48182017D01*
X135488866Y-49420112D02*
X135488866Y-50182017D01*
X135869819Y-49801064D02*
X135107914Y-49801064D01*
X135869819Y-51420112D02*
X134869819Y-51420112D01*
X134869819Y-51420112D02*
X135584104Y-51753445D01*
X135584104Y-51753445D02*
X134869819Y-52086778D01*
X134869819Y-52086778D02*
X135869819Y-52086778D01*
X134869819Y-52753445D02*
X134869819Y-52943921D01*
X134869819Y-52943921D02*
X134917438Y-53039159D01*
X134917438Y-53039159D02*
X135012676Y-53134397D01*
X135012676Y-53134397D02*
X135203152Y-53182016D01*
X135203152Y-53182016D02*
X135536485Y-53182016D01*
X135536485Y-53182016D02*
X135726961Y-53134397D01*
X135726961Y-53134397D02*
X135822200Y-53039159D01*
X135822200Y-53039159D02*
X135869819Y-52943921D01*
X135869819Y-52943921D02*
X135869819Y-52753445D01*
X135869819Y-52753445D02*
X135822200Y-52658207D01*
X135822200Y-52658207D02*
X135726961Y-52562969D01*
X135726961Y-52562969D02*
X135536485Y-52515350D01*
X135536485Y-52515350D02*
X135203152Y-52515350D01*
X135203152Y-52515350D02*
X135012676Y-52562969D01*
X135012676Y-52562969D02*
X134917438Y-52658207D01*
X134917438Y-52658207D02*
X134869819Y-52753445D01*
X134869819Y-53467731D02*
X134869819Y-54039159D01*
X135869819Y-53753445D02*
X134869819Y-53753445D01*
X135346009Y-55134398D02*
X135346009Y-55467731D01*
X135869819Y-55610588D02*
X135869819Y-55134398D01*
X135869819Y-55134398D02*
X134869819Y-55134398D01*
X134869819Y-55134398D02*
X134869819Y-55610588D01*
X134869819Y-55943922D02*
X135869819Y-56610588D01*
X134869819Y-56610588D02*
X135869819Y-55943922D01*
X135869819Y-56991541D02*
X134869819Y-56991541D01*
X134869819Y-56991541D02*
X134869819Y-57372493D01*
X134869819Y-57372493D02*
X134917438Y-57467731D01*
X134917438Y-57467731D02*
X134965057Y-57515350D01*
X134965057Y-57515350D02*
X135060295Y-57562969D01*
X135060295Y-57562969D02*
X135203152Y-57562969D01*
X135203152Y-57562969D02*
X135298390Y-57515350D01*
X135298390Y-57515350D02*
X135346009Y-57467731D01*
X135346009Y-57467731D02*
X135393628Y-57372493D01*
X135393628Y-57372493D02*
X135393628Y-56991541D01*
X135584104Y-58705827D02*
X135584104Y-59182017D01*
X135869819Y-58610589D02*
X134869819Y-58943922D01*
X134869819Y-58943922D02*
X135869819Y-59277255D01*
X135869819Y-59610589D02*
X134869819Y-59610589D01*
X134869819Y-59610589D02*
X134869819Y-59848684D01*
X134869819Y-59848684D02*
X134917438Y-59991541D01*
X134917438Y-59991541D02*
X135012676Y-60086779D01*
X135012676Y-60086779D02*
X135107914Y-60134398D01*
X135107914Y-60134398D02*
X135298390Y-60182017D01*
X135298390Y-60182017D02*
X135441247Y-60182017D01*
X135441247Y-60182017D02*
X135631723Y-60134398D01*
X135631723Y-60134398D02*
X135726961Y-60086779D01*
X135726961Y-60086779D02*
X135822200Y-59991541D01*
X135822200Y-59991541D02*
X135869819Y-59848684D01*
X135869819Y-59848684D02*
X135869819Y-59610589D01*
X135584104Y-60562970D02*
X135584104Y-61039160D01*
X135869819Y-60467732D02*
X134869819Y-60801065D01*
X134869819Y-60801065D02*
X135869819Y-61134398D01*
X135869819Y-61467732D02*
X134869819Y-61467732D01*
X134869819Y-61467732D02*
X134869819Y-61848684D01*
X134869819Y-61848684D02*
X134917438Y-61943922D01*
X134917438Y-61943922D02*
X134965057Y-61991541D01*
X134965057Y-61991541D02*
X135060295Y-62039160D01*
X135060295Y-62039160D02*
X135203152Y-62039160D01*
X135203152Y-62039160D02*
X135298390Y-61991541D01*
X135298390Y-61991541D02*
X135346009Y-61943922D01*
X135346009Y-61943922D02*
X135393628Y-61848684D01*
X135393628Y-61848684D02*
X135393628Y-61467732D01*
X134869819Y-62324875D02*
X134869819Y-62896303D01*
X135869819Y-62610589D02*
X134869819Y-62610589D01*
X135346009Y-63229637D02*
X135346009Y-63562970D01*
X135869819Y-63705827D02*
X135869819Y-63229637D01*
X135869819Y-63229637D02*
X134869819Y-63229637D01*
X134869819Y-63229637D02*
X134869819Y-63705827D01*
X135869819Y-64705827D02*
X135393628Y-64372494D01*
X135869819Y-64134399D02*
X134869819Y-64134399D01*
X134869819Y-64134399D02*
X134869819Y-64515351D01*
X134869819Y-64515351D02*
X134917438Y-64610589D01*
X134917438Y-64610589D02*
X134965057Y-64658208D01*
X134965057Y-64658208D02*
X135060295Y-64705827D01*
X135060295Y-64705827D02*
X135203152Y-64705827D01*
X135203152Y-64705827D02*
X135298390Y-64658208D01*
X135298390Y-64658208D02*
X135346009Y-64610589D01*
X135346009Y-64610589D02*
X135393628Y-64515351D01*
X135393628Y-64515351D02*
X135393628Y-64134399D01*
X135203152Y-65753447D02*
X135203152Y-66134399D01*
X135869819Y-65896304D02*
X135012676Y-65896304D01*
X135012676Y-65896304D02*
X134917438Y-65943923D01*
X134917438Y-65943923D02*
X134869819Y-66039161D01*
X134869819Y-66039161D02*
X134869819Y-66134399D01*
X135869819Y-66610590D02*
X135822200Y-66515352D01*
X135822200Y-66515352D02*
X135774580Y-66467733D01*
X135774580Y-66467733D02*
X135679342Y-66420114D01*
X135679342Y-66420114D02*
X135393628Y-66420114D01*
X135393628Y-66420114D02*
X135298390Y-66467733D01*
X135298390Y-66467733D02*
X135250771Y-66515352D01*
X135250771Y-66515352D02*
X135203152Y-66610590D01*
X135203152Y-66610590D02*
X135203152Y-66753447D01*
X135203152Y-66753447D02*
X135250771Y-66848685D01*
X135250771Y-66848685D02*
X135298390Y-66896304D01*
X135298390Y-66896304D02*
X135393628Y-66943923D01*
X135393628Y-66943923D02*
X135679342Y-66943923D01*
X135679342Y-66943923D02*
X135774580Y-66896304D01*
X135774580Y-66896304D02*
X135822200Y-66848685D01*
X135822200Y-66848685D02*
X135869819Y-66753447D01*
X135869819Y-66753447D02*
X135869819Y-66610590D01*
X135869819Y-67372495D02*
X135203152Y-67372495D01*
X135393628Y-67372495D02*
X135298390Y-67420114D01*
X135298390Y-67420114D02*
X135250771Y-67467733D01*
X135250771Y-67467733D02*
X135203152Y-67562971D01*
X135203152Y-67562971D02*
X135203152Y-67658209D01*
X135346009Y-69086781D02*
X135393628Y-69229638D01*
X135393628Y-69229638D02*
X135441247Y-69277257D01*
X135441247Y-69277257D02*
X135536485Y-69324876D01*
X135536485Y-69324876D02*
X135679342Y-69324876D01*
X135679342Y-69324876D02*
X135774580Y-69277257D01*
X135774580Y-69277257D02*
X135822200Y-69229638D01*
X135822200Y-69229638D02*
X135869819Y-69134400D01*
X135869819Y-69134400D02*
X135869819Y-68753448D01*
X135869819Y-68753448D02*
X134869819Y-68753448D01*
X134869819Y-68753448D02*
X134869819Y-69086781D01*
X134869819Y-69086781D02*
X134917438Y-69182019D01*
X134917438Y-69182019D02*
X134965057Y-69229638D01*
X134965057Y-69229638D02*
X135060295Y-69277257D01*
X135060295Y-69277257D02*
X135155533Y-69277257D01*
X135155533Y-69277257D02*
X135250771Y-69229638D01*
X135250771Y-69229638D02*
X135298390Y-69182019D01*
X135298390Y-69182019D02*
X135346009Y-69086781D01*
X135346009Y-69086781D02*
X135346009Y-68753448D01*
X134869819Y-69610591D02*
X134869819Y-70182019D01*
X135869819Y-69896305D02*
X134869819Y-69896305D01*
X134869819Y-70372496D02*
X134869819Y-70943924D01*
X135869819Y-70658210D02*
X134869819Y-70658210D01*
X135822200Y-71991544D02*
X135869819Y-72134401D01*
X135869819Y-72134401D02*
X135869819Y-72372496D01*
X135869819Y-72372496D02*
X135822200Y-72467734D01*
X135822200Y-72467734D02*
X135774580Y-72515353D01*
X135774580Y-72515353D02*
X135679342Y-72562972D01*
X135679342Y-72562972D02*
X135584104Y-72562972D01*
X135584104Y-72562972D02*
X135488866Y-72515353D01*
X135488866Y-72515353D02*
X135441247Y-72467734D01*
X135441247Y-72467734D02*
X135393628Y-72372496D01*
X135393628Y-72372496D02*
X135346009Y-72182020D01*
X135346009Y-72182020D02*
X135298390Y-72086782D01*
X135298390Y-72086782D02*
X135250771Y-72039163D01*
X135250771Y-72039163D02*
X135155533Y-71991544D01*
X135155533Y-71991544D02*
X135060295Y-71991544D01*
X135060295Y-71991544D02*
X134965057Y-72039163D01*
X134965057Y-72039163D02*
X134917438Y-72086782D01*
X134917438Y-72086782D02*
X134869819Y-72182020D01*
X134869819Y-72182020D02*
X134869819Y-72420115D01*
X134869819Y-72420115D02*
X134917438Y-72562972D01*
X135869819Y-72991544D02*
X134869819Y-72991544D01*
X135869819Y-73562972D02*
X135298390Y-73134401D01*
X134869819Y-73562972D02*
X135441247Y-72991544D01*
X135869819Y-74562972D02*
X135393628Y-74229639D01*
X135869819Y-73991544D02*
X134869819Y-73991544D01*
X134869819Y-73991544D02*
X134869819Y-74372496D01*
X134869819Y-74372496D02*
X134917438Y-74467734D01*
X134917438Y-74467734D02*
X134965057Y-74515353D01*
X134965057Y-74515353D02*
X135060295Y-74562972D01*
X135060295Y-74562972D02*
X135203152Y-74562972D01*
X135203152Y-74562972D02*
X135298390Y-74515353D01*
X135298390Y-74515353D02*
X135346009Y-74467734D01*
X135346009Y-74467734D02*
X135393628Y-74372496D01*
X135393628Y-74372496D02*
X135393628Y-73991544D01*
X135869819Y-76277258D02*
X135869819Y-75705830D01*
X135869819Y-75991544D02*
X134869819Y-75991544D01*
X134869819Y-75991544D02*
X135012676Y-75896306D01*
X135012676Y-75896306D02*
X135107914Y-75801068D01*
X135107914Y-75801068D02*
X135155533Y-75705830D01*
X135774580Y-76705830D02*
X135822200Y-76753449D01*
X135822200Y-76753449D02*
X135869819Y-76705830D01*
X135869819Y-76705830D02*
X135822200Y-76658211D01*
X135822200Y-76658211D02*
X135774580Y-76705830D01*
X135774580Y-76705830D02*
X135869819Y-76705830D01*
X135869819Y-77086782D02*
X135203152Y-77610591D01*
X135203152Y-77086782D02*
X135869819Y-77610591D01*
X133808358Y-65269512D02*
X132808358Y-65269512D01*
X132808358Y-65269512D02*
X133522643Y-65602845D01*
X133522643Y-65602845D02*
X132808358Y-65936178D01*
X132808358Y-65936178D02*
X133808358Y-65936178D01*
X132808358Y-66602845D02*
X132808358Y-66793321D01*
X132808358Y-66793321D02*
X132855977Y-66888559D01*
X132855977Y-66888559D02*
X132951215Y-66983797D01*
X132951215Y-66983797D02*
X133141691Y-67031416D01*
X133141691Y-67031416D02*
X133475024Y-67031416D01*
X133475024Y-67031416D02*
X133665500Y-66983797D01*
X133665500Y-66983797D02*
X133760739Y-66888559D01*
X133760739Y-66888559D02*
X133808358Y-66793321D01*
X133808358Y-66793321D02*
X133808358Y-66602845D01*
X133808358Y-66602845D02*
X133760739Y-66507607D01*
X133760739Y-66507607D02*
X133665500Y-66412369D01*
X133665500Y-66412369D02*
X133475024Y-66364750D01*
X133475024Y-66364750D02*
X133141691Y-66364750D01*
X133141691Y-66364750D02*
X132951215Y-66412369D01*
X132951215Y-66412369D02*
X132855977Y-66507607D01*
X132855977Y-66507607D02*
X132808358Y-66602845D01*
X132808358Y-67317131D02*
X132808358Y-67888559D01*
X133808358Y-67602845D02*
X132808358Y-67602845D01*
X133808358Y-68745702D02*
X133808358Y-68174274D01*
X133808358Y-68459988D02*
X132808358Y-68459988D01*
X132808358Y-68459988D02*
X132951215Y-68364750D01*
X132951215Y-68364750D02*
X133046453Y-68269512D01*
X133046453Y-68269512D02*
X133094072Y-68174274D01*
X133847579Y-44404126D02*
X132847579Y-44404126D01*
X132847579Y-44404126D02*
X133561864Y-44737459D01*
X133561864Y-44737459D02*
X132847579Y-45070792D01*
X132847579Y-45070792D02*
X133847579Y-45070792D01*
X132847579Y-45737459D02*
X132847579Y-45927935D01*
X132847579Y-45927935D02*
X132895198Y-46023173D01*
X132895198Y-46023173D02*
X132990436Y-46118411D01*
X132990436Y-46118411D02*
X133180912Y-46166030D01*
X133180912Y-46166030D02*
X133514245Y-46166030D01*
X133514245Y-46166030D02*
X133704721Y-46118411D01*
X133704721Y-46118411D02*
X133799960Y-46023173D01*
X133799960Y-46023173D02*
X133847579Y-45927935D01*
X133847579Y-45927935D02*
X133847579Y-45737459D01*
X133847579Y-45737459D02*
X133799960Y-45642221D01*
X133799960Y-45642221D02*
X133704721Y-45546983D01*
X133704721Y-45546983D02*
X133514245Y-45499364D01*
X133514245Y-45499364D02*
X133180912Y-45499364D01*
X133180912Y-45499364D02*
X132990436Y-45546983D01*
X132990436Y-45546983D02*
X132895198Y-45642221D01*
X132895198Y-45642221D02*
X132847579Y-45737459D01*
X132847579Y-46451745D02*
X132847579Y-47023173D01*
X133847579Y-46737459D02*
X132847579Y-46737459D01*
X132942817Y-47308888D02*
X132895198Y-47356507D01*
X132895198Y-47356507D02*
X132847579Y-47451745D01*
X132847579Y-47451745D02*
X132847579Y-47689840D01*
X132847579Y-47689840D02*
X132895198Y-47785078D01*
X132895198Y-47785078D02*
X132942817Y-47832697D01*
X132942817Y-47832697D02*
X133038055Y-47880316D01*
X133038055Y-47880316D02*
X133133293Y-47880316D01*
X133133293Y-47880316D02*
X133276150Y-47832697D01*
X133276150Y-47832697D02*
X133847579Y-47261269D01*
X133847579Y-47261269D02*
X133847579Y-47880316D01*
X120431009Y-44333333D02*
X120431009Y-44666666D01*
X120954819Y-44809523D02*
X120954819Y-44333333D01*
X120954819Y-44333333D02*
X119954819Y-44333333D01*
X119954819Y-44333333D02*
X119954819Y-44809523D01*
X119954819Y-45142857D02*
X120954819Y-45809523D01*
X119954819Y-45809523D02*
X120954819Y-45142857D01*
X120954819Y-46190476D02*
X119954819Y-46190476D01*
X119954819Y-46190476D02*
X119954819Y-46571428D01*
X119954819Y-46571428D02*
X120002438Y-46666666D01*
X120002438Y-46666666D02*
X120050057Y-46714285D01*
X120050057Y-46714285D02*
X120145295Y-46761904D01*
X120145295Y-46761904D02*
X120288152Y-46761904D01*
X120288152Y-46761904D02*
X120383390Y-46714285D01*
X120383390Y-46714285D02*
X120431009Y-46666666D01*
X120431009Y-46666666D02*
X120478628Y-46571428D01*
X120478628Y-46571428D02*
X120478628Y-46190476D01*
X120050057Y-47142857D02*
X120002438Y-47190476D01*
X120002438Y-47190476D02*
X119954819Y-47285714D01*
X119954819Y-47285714D02*
X119954819Y-47523809D01*
X119954819Y-47523809D02*
X120002438Y-47619047D01*
X120002438Y-47619047D02*
X120050057Y-47666666D01*
X120050057Y-47666666D02*
X120145295Y-47714285D01*
X120145295Y-47714285D02*
X120240533Y-47714285D01*
X120240533Y-47714285D02*
X120383390Y-47666666D01*
X120383390Y-47666666D02*
X120954819Y-47095238D01*
X120954819Y-47095238D02*
X120954819Y-47714285D01*
X120466367Y-65288393D02*
X120466367Y-65621726D01*
X120990177Y-65764583D02*
X120990177Y-65288393D01*
X120990177Y-65288393D02*
X119990177Y-65288393D01*
X119990177Y-65288393D02*
X119990177Y-65764583D01*
X119990177Y-66097917D02*
X120990177Y-66764583D01*
X119990177Y-66764583D02*
X120990177Y-66097917D01*
X120990177Y-67145536D02*
X119990177Y-67145536D01*
X119990177Y-67145536D02*
X119990177Y-67526488D01*
X119990177Y-67526488D02*
X120037796Y-67621726D01*
X120037796Y-67621726D02*
X120085415Y-67669345D01*
X120085415Y-67669345D02*
X120180653Y-67716964D01*
X120180653Y-67716964D02*
X120323510Y-67716964D01*
X120323510Y-67716964D02*
X120418748Y-67669345D01*
X120418748Y-67669345D02*
X120466367Y-67621726D01*
X120466367Y-67621726D02*
X120513986Y-67526488D01*
X120513986Y-67526488D02*
X120513986Y-67145536D01*
X120990177Y-68669345D02*
X120990177Y-68097917D01*
X120990177Y-68383631D02*
X119990177Y-68383631D01*
X119990177Y-68383631D02*
X120133034Y-68288393D01*
X120133034Y-68288393D02*
X120228272Y-68193155D01*
X120228272Y-68193155D02*
X120275891Y-68097917D01*
D11*
%TO.C,MOT1*%
X123241122Y-57004585D02*
X123241122Y-77584585D01*
X123241122Y-77584585D02*
X132361122Y-77584585D01*
X124551122Y-58304585D02*
X124551122Y-76284585D01*
X124551122Y-76284585D02*
X131051122Y-76284585D01*
X131051122Y-58304585D02*
X124551122Y-58304585D01*
X131051122Y-65244585D02*
X131051122Y-58304585D01*
X131051122Y-65244585D02*
X131051122Y-65244585D01*
X131051122Y-69344585D02*
X132361122Y-69344585D01*
X131051122Y-76284585D02*
X131051122Y-69344585D01*
X132361122Y-57004585D02*
X123241122Y-57004585D01*
X132361122Y-65244585D02*
X131051122Y-65244585D01*
X132361122Y-77584585D02*
X132361122Y-57004585D01*
X132751122Y-72374585D02*
X133751122Y-71874585D01*
X133751122Y-71874585D02*
X133751122Y-72874585D01*
X133751122Y-72874585D02*
X132751122Y-72374585D01*
%TO.C,MOT2*%
X123219618Y-36039734D02*
X123219618Y-56619734D01*
X123219618Y-56619734D02*
X132339618Y-56619734D01*
X124529618Y-37339734D02*
X124529618Y-55319734D01*
X124529618Y-55319734D02*
X131029618Y-55319734D01*
X131029618Y-37339734D02*
X124529618Y-37339734D01*
X131029618Y-44279734D02*
X131029618Y-37339734D01*
X131029618Y-44279734D02*
X131029618Y-44279734D01*
X131029618Y-48379734D02*
X132339618Y-48379734D01*
X131029618Y-55319734D02*
X131029618Y-48379734D01*
X132339618Y-36039734D02*
X123219618Y-36039734D01*
X132339618Y-44279734D02*
X131029618Y-44279734D01*
X132339618Y-56619734D02*
X132339618Y-36039734D01*
X132729618Y-51409734D02*
X133729618Y-50909734D01*
X133729618Y-50909734D02*
X133729618Y-51909734D01*
X133729618Y-51909734D02*
X132729618Y-51409734D01*
%TO.C,EXP2*%
X110433646Y-35920940D02*
X110433646Y-56500940D01*
X110433646Y-56500940D02*
X119553646Y-56500940D01*
X111743646Y-37220940D02*
X111743646Y-55200940D01*
X111743646Y-55200940D02*
X118243646Y-55200940D01*
X118243646Y-37220940D02*
X111743646Y-37220940D01*
X118243646Y-44160940D02*
X118243646Y-37220940D01*
X118243646Y-44160940D02*
X118243646Y-44160940D01*
X118243646Y-48260940D02*
X119553646Y-48260940D01*
X118243646Y-55200940D02*
X118243646Y-48260940D01*
X119553646Y-35920940D02*
X110433646Y-35920940D01*
X119553646Y-44160940D02*
X118243646Y-44160940D01*
X119553646Y-56500940D02*
X119553646Y-35920940D01*
X119943646Y-51290940D02*
X120943646Y-50790940D01*
X120943646Y-50790940D02*
X120943646Y-51790940D01*
X120943646Y-51790940D02*
X119943646Y-51290940D01*
%TO.C,EXP1*%
X110436006Y-56911948D02*
X110436006Y-77491948D01*
X110436006Y-77491948D02*
X119556006Y-77491948D01*
X111746006Y-58211948D02*
X111746006Y-76191948D01*
X111746006Y-76191948D02*
X118246006Y-76191948D01*
X118246006Y-58211948D02*
X111746006Y-58211948D01*
X118246006Y-65151948D02*
X118246006Y-58211948D01*
X118246006Y-65151948D02*
X118246006Y-65151948D01*
X118246006Y-69251948D02*
X119556006Y-69251948D01*
X118246006Y-76191948D02*
X118246006Y-69251948D01*
X119556006Y-56911948D02*
X110436006Y-56911948D01*
X119556006Y-65151948D02*
X118246006Y-65151948D01*
X119556006Y-77491948D02*
X119556006Y-56911948D01*
X119946006Y-72281948D02*
X120946006Y-71781948D01*
X120946006Y-71781948D02*
X120946006Y-72781948D01*
X120946006Y-72781948D02*
X119946006Y-72281948D01*
%TD*%
M02*
