%TF.GenerationSoftware,KiCad,Pcbnew,8.0.5*%
%TF.CreationDate,2024-09-24T01:03:51+02:00*%
%TF.ProjectId,RRF_MOT_EXP_ADAPTER,5252465f-4d4f-4545-9f45-58505f414441,rev?*%
%TF.SameCoordinates,Original*%
%TF.FileFunction,Copper,L2,Bot*%
%TF.FilePolarity,Positive*%
%FSLAX46Y46*%
G04 Gerber Fmt 4.6, Leading zero omitted, Abs format (unit mm)*
G04 Created by KiCad (PCBNEW 8.0.5) date 2024-09-24 01:03:51*
%MOMM*%
%LPD*%
G01*
G04 APERTURE LIST*
G04 Aperture macros list*
%AMRoundRect*
0 Rectangle with rounded corners*
0 $1 Rounding radius*
0 $2 $3 $4 $5 $6 $7 $8 $9 X,Y pos of 4 corners*
0 Add a 4 corners polygon primitive as box body*
4,1,4,$2,$3,$4,$5,$6,$7,$8,$9,$2,$3,0*
0 Add four circle primitives for the rounded corners*
1,1,$1+$1,$2,$3*
1,1,$1+$1,$4,$5*
1,1,$1+$1,$6,$7*
1,1,$1+$1,$8,$9*
0 Add four rect primitives between the rounded corners*
20,1,$1+$1,$2,$3,$4,$5,0*
20,1,$1+$1,$4,$5,$6,$7,0*
20,1,$1+$1,$6,$7,$8,$9,0*
20,1,$1+$1,$8,$9,$2,$3,0*%
G04 Aperture macros list end*
%TA.AperFunction,ComponentPad*%
%ADD10R,1.700000X1.700000*%
%TD*%
%TA.AperFunction,ComponentPad*%
%ADD11O,1.700000X1.700000*%
%TD*%
%TA.AperFunction,ComponentPad*%
%ADD12C,1.700000*%
%TD*%
%TA.AperFunction,ComponentPad*%
%ADD13RoundRect,0.250000X-0.600000X-0.600000X0.600000X-0.600000X0.600000X0.600000X-0.600000X0.600000X0*%
%TD*%
%TA.AperFunction,Conductor*%
%ADD14C,0.200000*%
%TD*%
G04 APERTURE END LIST*
D10*
%TO.P,J1,1,Pin_1*%
%TO.N,/M1_DIAG*%
X134407529Y-79336527D03*
D11*
%TO.P,J1,2,Pin_2*%
%TO.N,/M2_DIAG*%
X131867529Y-79336527D03*
%TD*%
D12*
%TO.P,U1,1,A0(ADC0)*%
%TO.N,unconnected-(U1-A0(ADC0)-Pad1)*%
X138906861Y-77460211D03*
%TO.P,U1,2,RSV*%
%TO.N,unconnected-(U1-RSV-Pad2)*%
X138906861Y-74920211D03*
%TO.P,U1,3,RSV*%
%TO.N,unconnected-(U1-RSV-Pad3)*%
X138906861Y-72380211D03*
%TO.P,U1,4,SD3(GPIO10)*%
%TO.N,unconnected-(U1-SD3(GPIO10)-Pad4)*%
X138906861Y-69840211D03*
%TO.P,U1,5,SD2(GPIO9)*%
%TO.N,unconnected-(U1-SD2(GPIO9)-Pad5)*%
X138906861Y-67300211D03*
%TO.P,U1,6,SD1(MOSI)*%
%TO.N,unconnected-(U1-SD1(MOSI)-Pad6)*%
X138906861Y-64760211D03*
%TO.P,U1,7,CMD(CS)*%
%TO.N,unconnected-(U1-CMD(CS)-Pad7)*%
X138906861Y-62220211D03*
%TO.P,U1,8,SDO(MISO)*%
%TO.N,unconnected-(U1-SDO(MISO)-Pad8)*%
X138906861Y-59680211D03*
%TO.P,U1,9,CLK(SCLK)*%
%TO.N,unconnected-(U1-CLK(SCLK)-Pad9)*%
X138906861Y-57140211D03*
%TO.P,U1,10,GND*%
%TO.N,/GND*%
X138906861Y-54600211D03*
%TO.P,U1,11,3.3V*%
%TO.N,unconnected-(U1-3.3V-Pad11)*%
X138906861Y-52060211D03*
%TO.P,U1,12,EN*%
%TO.N,unconnected-(U1-EN-Pad12)*%
X138906861Y-49520211D03*
%TO.P,U1,13,RST*%
%TO.N,Net-(U1-RST)*%
X138906861Y-46980211D03*
%TO.P,U1,14,GND*%
%TO.N,unconnected-(U1-GND-Pad14)*%
X138906861Y-44440211D03*
%TO.P,U1,15,VIN*%
%TO.N,/+5V*%
X138906861Y-41900211D03*
%TO.P,U1,16,3.3V*%
%TO.N,unconnected-(U1-3.3V-Pad16)*%
X110966861Y-41900211D03*
%TO.P,U1,17,GND*%
%TO.N,unconnected-(U1-GND-Pad17)*%
X110966861Y-44440211D03*
%TO.P,U1,18,TX(GPIO1)*%
%TO.N,unconnected-(U1-TX(GPIO1)-Pad18)*%
X110966861Y-46980211D03*
%TO.P,U1,19,RX(DPIO3)*%
%TO.N,unconnected-(U1-RX(DPIO3)-Pad19)*%
X110966861Y-49520211D03*
%TO.P,U1,20,D8(GPIO15)*%
%TO.N,Net-(U1-D8(GPIO15))*%
X110966861Y-52060211D03*
%TO.P,U1,21,D7(GPIO13)*%
%TO.N,Net-(U1-D7(GPIO13))*%
X110966861Y-54600211D03*
%TO.P,U1,22,D6(GPIO12)*%
%TO.N,Net-(U1-D6(GPIO12))*%
X110966861Y-57140211D03*
%TO.P,U1,23,D5(GPIO14)*%
%TO.N,Net-(U1-D5(GPIO14))*%
X110966861Y-59680211D03*
%TO.P,U1,24,GND*%
%TO.N,unconnected-(U1-GND-Pad24)*%
X110966861Y-62220211D03*
%TO.P,U1,25,3.3V*%
%TO.N,unconnected-(U1-3.3V-Pad25)*%
X110966861Y-64760211D03*
%TO.P,U1,26,D4(GPIO2)*%
%TO.N,unconnected-(U1-D4(GPIO2)-Pad26)*%
X110966861Y-67300211D03*
%TO.P,U1,27,D3(GPIO0)*%
%TO.N,Net-(U1-D3(GPIO0))*%
X110966861Y-69840211D03*
%TO.P,U1,28,D2(GPIO4)*%
%TO.N,/1.30*%
X110966861Y-72380211D03*
%TO.P,U1,29,D1(GPIO5)*%
%TO.N,unconnected-(U1-D1(GPIO5)-Pad29)*%
X110966861Y-74920211D03*
%TO.P,U1,30,D0(GPIO16)*%
%TO.N,unconnected-(U1-D0(GPIO16)-Pad30)*%
X110966861Y-77460211D03*
%TD*%
D13*
%TO.P,MOT1,1,Pin_1*%
%TO.N,/M3_DIAG*%
X129071122Y-72374585D03*
D12*
%TO.P,MOT1,2,Pin_2*%
%TO.N,/M3_RX*%
X126531122Y-72374585D03*
%TO.P,MOT1,3,Pin_3*%
%TO.N,/M2_DIAG*%
X129071122Y-69834585D03*
%TO.P,MOT1,4,Pin_4*%
%TO.N,/3.26 M2_UART*%
X126531122Y-69834585D03*
%TO.P,MOT1,5,Pin_5*%
%TO.N,/M1_DIAG*%
X129071122Y-67294585D03*
%TO.P,MOT1,6,Pin_6*%
%TO.N,/3.25 M1_UART*%
X126531122Y-67294585D03*
%TO.P,MOT1,7,Pin_7*%
%TO.N,/M3_EN*%
X129071122Y-64754585D03*
%TO.P,MOT1,8,Pin_8*%
%TO.N,/1.23 M2_EN*%
X126531122Y-64754585D03*
%TO.P,MOT1,9,Pin_9*%
%TO.N,/GND*%
X129071122Y-62214585D03*
%TO.P,MOT1,10,Pin_10*%
%TO.N,unconnected-(MOT1-Pin_10-Pad10)*%
X126531122Y-62214585D03*
%TD*%
D13*
%TO.P,MOT2,1,Pin_1*%
%TO.N,/M3_STEP*%
X129049618Y-51409734D03*
D12*
%TO.P,MOT2,2,Pin_2*%
%TO.N,/M3_DIR*%
X126509618Y-51409734D03*
%TO.P,MOT2,3,Pin_3*%
%TO.N,/1.20 M2_STP*%
X129049618Y-48869734D03*
%TO.P,MOT2,4,Pin_4*%
%TO.N,/1.22 M2_DIR*%
X126509618Y-48869734D03*
%TO.P,MOT2,5,Pin_5*%
%TO.N,/1.19 M1_DIR*%
X129049618Y-46329734D03*
%TO.P,MOT2,6,Pin_6*%
%TO.N,/1.21 M1_STEP*%
X126509618Y-46329734D03*
%TO.P,MOT2,7,Pin_7*%
%TO.N,/1.18 M1_EN*%
X129049618Y-43789734D03*
%TO.P,MOT2,8,Pin_8*%
%TO.N,unconnected-(MOT2-Pin_8-Pad8)*%
X126509618Y-43789734D03*
%TO.P,MOT2,9,Pin_9*%
%TO.N,/GND*%
X129049618Y-41249734D03*
%TO.P,MOT2,10,Pin_10*%
%TO.N,unconnected-(MOT2-Pin_10-Pad10)*%
X126509618Y-41249734D03*
%TD*%
D13*
%TO.P,EXP2,1,Pin_1*%
%TO.N,/0.17*%
X116263646Y-51290940D03*
D12*
%TO.P,EXP2,2,Pin_2*%
%TO.N,/0.15*%
X113723646Y-51290940D03*
%TO.P,EXP2,3,Pin_3*%
%TO.N,/3.26 M2_UART*%
X116263646Y-48750940D03*
%TO.P,EXP2,4,Pin_4*%
%TO.N,/0.16*%
X113723646Y-48750940D03*
%TO.P,EXP2,5,Pin_5*%
%TO.N,/3.25 M1_UART*%
X116263646Y-46210940D03*
%TO.P,EXP2,6,Pin_6*%
%TO.N,/0.18*%
X113723646Y-46210940D03*
%TO.P,EXP2,7,Pin_7*%
%TO.N,/1.31*%
X116263646Y-43670940D03*
%TO.P,EXP2,8,Pin_8*%
%TO.N,/RESET*%
X113723646Y-43670940D03*
%TO.P,EXP2,9,Pin_9*%
%TO.N,/GND*%
X116263646Y-41130940D03*
%TO.P,EXP2,10,Pin_10*%
%TO.N,/NC*%
X113723646Y-41130940D03*
%TD*%
D13*
%TO.P,EXP1,1,Pin_1*%
%TO.N,/1.30*%
X116266006Y-72281948D03*
D12*
%TO.P,EXP1,2,Pin_2*%
%TO.N,/0.28*%
X113726006Y-72281948D03*
%TO.P,EXP1,3,Pin_3*%
%TO.N,/1.18 M1_EN*%
X116266006Y-69741948D03*
%TO.P,EXP1,4,Pin_4*%
%TO.N,/1.19 M1_DIR*%
X113726006Y-69741948D03*
%TO.P,EXP1,5,Pin_5*%
%TO.N,/1.20 M2_STP*%
X116266006Y-67201948D03*
%TO.P,EXP1,6,Pin_6*%
%TO.N,/1.21 M1_STEP*%
X113726006Y-67201948D03*
%TO.P,EXP1,7,Pin_7*%
%TO.N,/1.22 M2_DIR*%
X116266006Y-64661948D03*
%TO.P,EXP1,8,Pin_8*%
%TO.N,/1.23 M2_EN*%
X113726006Y-64661948D03*
%TO.P,EXP1,9,Pin_9*%
%TO.N,/GND*%
X116266006Y-62121948D03*
%TO.P,EXP1,10,Pin_10*%
%TO.N,/+5V*%
X113726006Y-62121948D03*
%TD*%
D14*
%TO.N,/1.18 M1_EN*%
X129047113Y-43838287D02*
X131000000Y-45791174D01*
X131000000Y-55128977D02*
X116387029Y-69741948D01*
X116387029Y-69741948D02*
X116266006Y-69741948D01*
X131000000Y-45791174D02*
X131000000Y-55128977D01*
%TO.N,/1.20 M2_STP*%
X116266006Y-67201948D02*
X116798052Y-67201948D01*
X127750000Y-50215400D02*
X129047113Y-48918287D01*
X116798052Y-67201948D02*
X127750000Y-56250000D01*
X127750000Y-56250000D02*
X127750000Y-50215400D01*
%TO.N,/1.21 M1_STEP*%
X115000000Y-65927954D02*
X113726006Y-67201948D01*
X126507113Y-46378287D02*
X115000000Y-57885400D01*
X115000000Y-57885400D02*
X115000000Y-65927954D01*
%TO.N,/GND*%
X138970000Y-54700000D02*
X136585707Y-54700000D01*
X136585707Y-54700000D02*
X129071122Y-62214585D01*
%TO.N,/1.22 M2_DIR*%
X116266006Y-64661948D02*
X121193960Y-59733994D01*
X121193960Y-54231440D02*
X126507113Y-48918287D01*
X121193960Y-59733994D02*
X121193960Y-54231440D01*
%TO.N,/1.19 M1_DIR*%
X130250000Y-47581174D02*
X129047113Y-46378287D01*
X114967954Y-68500000D02*
X116594300Y-68500000D01*
X113726006Y-69741948D02*
X114967954Y-68500000D01*
X116594300Y-68500000D02*
X130250000Y-54844300D01*
X130250000Y-54844300D02*
X130250000Y-47581174D01*
%TO.N,/M1_DIAG*%
X129071122Y-67294585D02*
X134407529Y-72630992D01*
X134407529Y-72630992D02*
X134407529Y-79336527D01*
%TO.N,/M2_DIAG*%
X131867529Y-72630992D02*
X131867529Y-79336527D01*
X129071122Y-69834585D02*
X131867529Y-72630992D01*
%TO.N,/3.26 M2_UART*%
X112500000Y-70142288D02*
X112500000Y-54250000D01*
X125473759Y-70891948D02*
X113249660Y-70891948D01*
X112500000Y-54250000D02*
X115113646Y-51636354D01*
X116263646Y-48750940D02*
X116263646Y-49306196D01*
X113249660Y-70891948D02*
X112500000Y-70142288D01*
X126531122Y-69834585D02*
X125473759Y-70891948D01*
X115113646Y-51636354D02*
X115113646Y-49900940D01*
X115113646Y-49900940D02*
X116263646Y-48750940D01*
%TD*%
M02*
