%TF.GenerationSoftware,KiCad,Pcbnew,8.0.5*%
%TF.CreationDate,2024-09-24T01:03:56+02:00*%
%TF.ProjectId,RRF_MOT_EXP_ADAPTER,5252465f-4d4f-4545-9f45-58505f414441,rev?*%
%TF.SameCoordinates,Original*%
%TF.FileFunction,Drillmap*%
%TF.FilePolarity,Positive*%
%FSLAX45Y45*%
G04 Gerber Fmt 4.5, Leading zero omitted, Abs format (unit mm)*
G04 Created by KiCad (PCBNEW 8.0.5) date 2024-09-24 01:03:56*
%MOMM*%
%LPD*%
G01*
G04 APERTURE LIST*
%ADD10C,0.050000*%
%ADD11C,0.200000*%
G04 APERTURE END LIST*
D10*
X10925000Y-3525000D02*
X14075000Y-3525000D01*
X14075000Y-8425000D01*
X10925000Y-8425000D01*
X10925000Y-3525000D01*
D11*
X11183277Y-8738984D02*
X11183277Y-8538984D01*
X11183277Y-8538984D02*
X11230896Y-8538984D01*
X11230896Y-8538984D02*
X11259467Y-8548508D01*
X11259467Y-8548508D02*
X11278515Y-8567555D01*
X11278515Y-8567555D02*
X11288039Y-8586603D01*
X11288039Y-8586603D02*
X11297562Y-8624698D01*
X11297562Y-8624698D02*
X11297562Y-8653270D01*
X11297562Y-8653270D02*
X11288039Y-8691365D01*
X11288039Y-8691365D02*
X11278515Y-8710412D01*
X11278515Y-8710412D02*
X11259467Y-8729460D01*
X11259467Y-8729460D02*
X11230896Y-8738984D01*
X11230896Y-8738984D02*
X11183277Y-8738984D01*
X11383277Y-8738984D02*
X11383277Y-8605650D01*
X11383277Y-8643746D02*
X11392801Y-8624698D01*
X11392801Y-8624698D02*
X11402324Y-8615174D01*
X11402324Y-8615174D02*
X11421372Y-8605650D01*
X11421372Y-8605650D02*
X11440420Y-8605650D01*
X11507086Y-8738984D02*
X11507086Y-8605650D01*
X11507086Y-8538984D02*
X11497562Y-8548508D01*
X11497562Y-8548508D02*
X11507086Y-8558031D01*
X11507086Y-8558031D02*
X11516610Y-8548508D01*
X11516610Y-8548508D02*
X11507086Y-8538984D01*
X11507086Y-8538984D02*
X11507086Y-8558031D01*
X11630896Y-8738984D02*
X11611848Y-8729460D01*
X11611848Y-8729460D02*
X11602324Y-8710412D01*
X11602324Y-8710412D02*
X11602324Y-8538984D01*
X11735658Y-8738984D02*
X11716610Y-8729460D01*
X11716610Y-8729460D02*
X11707086Y-8710412D01*
X11707086Y-8710412D02*
X11707086Y-8538984D01*
X11964229Y-8738984D02*
X11964229Y-8538984D01*
X11964229Y-8538984D02*
X12030896Y-8681841D01*
X12030896Y-8681841D02*
X12097562Y-8538984D01*
X12097562Y-8538984D02*
X12097562Y-8738984D01*
X12278515Y-8738984D02*
X12278515Y-8634222D01*
X12278515Y-8634222D02*
X12268991Y-8615174D01*
X12268991Y-8615174D02*
X12249943Y-8605650D01*
X12249943Y-8605650D02*
X12211848Y-8605650D01*
X12211848Y-8605650D02*
X12192801Y-8615174D01*
X12278515Y-8729460D02*
X12259467Y-8738984D01*
X12259467Y-8738984D02*
X12211848Y-8738984D01*
X12211848Y-8738984D02*
X12192801Y-8729460D01*
X12192801Y-8729460D02*
X12183277Y-8710412D01*
X12183277Y-8710412D02*
X12183277Y-8691365D01*
X12183277Y-8691365D02*
X12192801Y-8672317D01*
X12192801Y-8672317D02*
X12211848Y-8662793D01*
X12211848Y-8662793D02*
X12259467Y-8662793D01*
X12259467Y-8662793D02*
X12278515Y-8653270D01*
X12373753Y-8605650D02*
X12373753Y-8805650D01*
X12373753Y-8615174D02*
X12392801Y-8605650D01*
X12392801Y-8605650D02*
X12430896Y-8605650D01*
X12430896Y-8605650D02*
X12449943Y-8615174D01*
X12449943Y-8615174D02*
X12459467Y-8624698D01*
X12459467Y-8624698D02*
X12468991Y-8643746D01*
X12468991Y-8643746D02*
X12468991Y-8700889D01*
X12468991Y-8700889D02*
X12459467Y-8719936D01*
X12459467Y-8719936D02*
X12449943Y-8729460D01*
X12449943Y-8729460D02*
X12430896Y-8738984D01*
X12430896Y-8738984D02*
X12392801Y-8738984D01*
X12392801Y-8738984D02*
X12373753Y-8729460D01*
X12554705Y-8719936D02*
X12564229Y-8729460D01*
X12564229Y-8729460D02*
X12554705Y-8738984D01*
X12554705Y-8738984D02*
X12545182Y-8729460D01*
X12545182Y-8729460D02*
X12554705Y-8719936D01*
X12554705Y-8719936D02*
X12554705Y-8738984D01*
X12554705Y-8615174D02*
X12564229Y-8624698D01*
X12564229Y-8624698D02*
X12554705Y-8634222D01*
X12554705Y-8634222D02*
X12545182Y-8624698D01*
X12545182Y-8624698D02*
X12554705Y-8615174D01*
X12554705Y-8615174D02*
X12554705Y-8634222D01*
M02*
