%TF.GenerationSoftware,KiCad,Pcbnew,8.0.5*%
%TF.CreationDate,2024-09-24T01:03:56+02:00*%
%TF.ProjectId,RRF_MOT_EXP_ADAPTER,5252465f-4d4f-4545-9f45-58505f414441,rev?*%
%TF.SameCoordinates,Original*%
%TF.FileFunction,Drillmap*%
%TF.FilePolarity,Positive*%
%FSLAX45Y45*%
G04 Gerber Fmt 4.5, Leading zero omitted, Abs format (unit mm)*
G04 Created by KiCad (PCBNEW 8.0.5) date 2024-09-24 01:03:56*
%MOMM*%
%LPD*%
G01*
G04 APERTURE LIST*
%ADD10C,0.050000*%
%ADD11C,0.200000*%
%ADD12C,0.100000*%
G04 APERTURE END LIST*
D10*
X10925000Y-3525000D02*
X14075000Y-3525000D01*
X14075000Y-8425000D01*
X10925000Y-8425000D01*
X10925000Y-3525000D01*
D11*
D12*
X11046686Y-4140021D02*
X11146686Y-4240021D01*
X11146686Y-4140021D02*
X11046686Y-4240021D01*
X11046686Y-4394021D02*
X11146686Y-4494021D01*
X11146686Y-4394021D02*
X11046686Y-4494021D01*
X11046686Y-4648021D02*
X11146686Y-4748021D01*
X11146686Y-4648021D02*
X11046686Y-4748021D01*
X11046686Y-4902021D02*
X11146686Y-5002021D01*
X11146686Y-4902021D02*
X11046686Y-5002021D01*
X11046686Y-5156021D02*
X11146686Y-5256021D01*
X11146686Y-5156021D02*
X11046686Y-5256021D01*
X11046686Y-5410021D02*
X11146686Y-5510021D01*
X11146686Y-5410021D02*
X11046686Y-5510021D01*
X11046686Y-5664021D02*
X11146686Y-5764021D01*
X11146686Y-5664021D02*
X11046686Y-5764021D01*
X11046686Y-5918021D02*
X11146686Y-6018021D01*
X11146686Y-5918021D02*
X11046686Y-6018021D01*
X11046686Y-6172021D02*
X11146686Y-6272021D01*
X11146686Y-6172021D02*
X11046686Y-6272021D01*
X11046686Y-6426021D02*
X11146686Y-6526021D01*
X11146686Y-6426021D02*
X11046686Y-6526021D01*
X11046686Y-6680021D02*
X11146686Y-6780021D01*
X11146686Y-6680021D02*
X11046686Y-6780021D01*
X11046686Y-6934021D02*
X11146686Y-7034021D01*
X11146686Y-6934021D02*
X11046686Y-7034021D01*
X11046686Y-7188021D02*
X11146686Y-7288021D01*
X11146686Y-7188021D02*
X11046686Y-7288021D01*
X11046686Y-7442021D02*
X11146686Y-7542021D01*
X11146686Y-7442021D02*
X11046686Y-7542021D01*
X11046686Y-7696021D02*
X11146686Y-7796021D01*
X11146686Y-7696021D02*
X11046686Y-7796021D01*
X11322365Y-4063094D02*
X11422365Y-4163094D01*
X11422365Y-4063094D02*
X11322365Y-4163094D01*
X11322365Y-4317094D02*
X11422365Y-4417094D01*
X11422365Y-4317094D02*
X11322365Y-4417094D01*
X11322365Y-4571094D02*
X11422365Y-4671094D01*
X11422365Y-4571094D02*
X11322365Y-4671094D01*
X11322365Y-4825094D02*
X11422365Y-4925094D01*
X11422365Y-4825094D02*
X11322365Y-4925094D01*
X11322365Y-5079094D02*
X11422365Y-5179094D01*
X11422365Y-5079094D02*
X11322365Y-5179094D01*
X11322601Y-6162195D02*
X11422601Y-6262195D01*
X11422601Y-6162195D02*
X11322601Y-6262195D01*
X11322601Y-6416195D02*
X11422601Y-6516195D01*
X11422601Y-6416195D02*
X11322601Y-6516195D01*
X11322601Y-6670195D02*
X11422601Y-6770195D01*
X11422601Y-6670195D02*
X11322601Y-6770195D01*
X11322601Y-6924195D02*
X11422601Y-7024195D01*
X11422601Y-6924195D02*
X11322601Y-7024195D01*
X11322601Y-7178195D02*
X11422601Y-7278195D01*
X11422601Y-7178195D02*
X11322601Y-7278195D01*
X11576365Y-4063094D02*
X11676365Y-4163094D01*
X11676365Y-4063094D02*
X11576365Y-4163094D01*
X11576365Y-4317094D02*
X11676365Y-4417094D01*
X11676365Y-4317094D02*
X11576365Y-4417094D01*
X11576365Y-4571094D02*
X11676365Y-4671094D01*
X11676365Y-4571094D02*
X11576365Y-4671094D01*
X11576365Y-4825094D02*
X11676365Y-4925094D01*
X11676365Y-4825094D02*
X11576365Y-4925094D01*
X11576365Y-5079094D02*
X11676365Y-5179094D01*
X11676365Y-5079094D02*
X11576365Y-5179094D01*
X11576601Y-6162195D02*
X11676601Y-6262195D01*
X11676601Y-6162195D02*
X11576601Y-6262195D01*
X11576601Y-6416195D02*
X11676601Y-6516195D01*
X11676601Y-6416195D02*
X11576601Y-6516195D01*
X11576601Y-6670195D02*
X11676601Y-6770195D01*
X11676601Y-6670195D02*
X11576601Y-6770195D01*
X11576601Y-6924195D02*
X11676601Y-7024195D01*
X11676601Y-6924195D02*
X11576601Y-7024195D01*
X11576601Y-7178195D02*
X11676601Y-7278195D01*
X11676601Y-7178195D02*
X11576601Y-7278195D01*
X12600962Y-4074973D02*
X12700962Y-4174973D01*
X12700962Y-4074973D02*
X12600962Y-4174973D01*
X12600962Y-4328973D02*
X12700962Y-4428973D01*
X12700962Y-4328973D02*
X12600962Y-4428973D01*
X12600962Y-4582973D02*
X12700962Y-4682973D01*
X12700962Y-4582973D02*
X12600962Y-4682973D01*
X12600962Y-4836973D02*
X12700962Y-4936973D01*
X12700962Y-4836973D02*
X12600962Y-4936973D01*
X12600962Y-5090973D02*
X12700962Y-5190973D01*
X12700962Y-5090973D02*
X12600962Y-5190973D01*
X12603112Y-6171458D02*
X12703112Y-6271458D01*
X12703112Y-6171458D02*
X12603112Y-6271458D01*
X12603112Y-6425458D02*
X12703112Y-6525458D01*
X12703112Y-6425458D02*
X12603112Y-6525458D01*
X12603112Y-6679458D02*
X12703112Y-6779458D01*
X12703112Y-6679458D02*
X12603112Y-6779458D01*
X12603112Y-6933458D02*
X12703112Y-7033458D01*
X12703112Y-6933458D02*
X12603112Y-7033458D01*
X12603112Y-7187458D02*
X12703112Y-7287458D01*
X12703112Y-7187458D02*
X12603112Y-7287458D01*
X12854962Y-4074973D02*
X12954962Y-4174973D01*
X12954962Y-4074973D02*
X12854962Y-4174973D01*
X12854962Y-4328973D02*
X12954962Y-4428973D01*
X12954962Y-4328973D02*
X12854962Y-4428973D01*
X12854962Y-4582973D02*
X12954962Y-4682973D01*
X12954962Y-4582973D02*
X12854962Y-4682973D01*
X12854962Y-4836973D02*
X12954962Y-4936973D01*
X12954962Y-4836973D02*
X12854962Y-4936973D01*
X12854962Y-5090973D02*
X12954962Y-5190973D01*
X12954962Y-5090973D02*
X12854962Y-5190973D01*
X12857112Y-6171458D02*
X12957112Y-6271458D01*
X12957112Y-6171458D02*
X12857112Y-6271458D01*
X12857112Y-6425458D02*
X12957112Y-6525458D01*
X12957112Y-6425458D02*
X12857112Y-6525458D01*
X12857112Y-6679458D02*
X12957112Y-6779458D01*
X12957112Y-6679458D02*
X12857112Y-6779458D01*
X12857112Y-6933458D02*
X12957112Y-7033458D01*
X12957112Y-6933458D02*
X12857112Y-7033458D01*
X12857112Y-7187458D02*
X12957112Y-7287458D01*
X12957112Y-7187458D02*
X12857112Y-7287458D01*
X13136753Y-7883653D02*
X13236753Y-7983653D01*
X13236753Y-7883653D02*
X13136753Y-7983653D01*
X13390753Y-7883653D02*
X13490753Y-7983653D01*
X13490753Y-7883653D02*
X13390753Y-7983653D01*
X13840686Y-4140021D02*
X13940686Y-4240021D01*
X13940686Y-4140021D02*
X13840686Y-4240021D01*
X13840686Y-4394021D02*
X13940686Y-4494021D01*
X13940686Y-4394021D02*
X13840686Y-4494021D01*
X13840686Y-4648021D02*
X13940686Y-4748021D01*
X13940686Y-4648021D02*
X13840686Y-4748021D01*
X13840686Y-4902021D02*
X13940686Y-5002021D01*
X13940686Y-4902021D02*
X13840686Y-5002021D01*
X13840686Y-5156021D02*
X13940686Y-5256021D01*
X13940686Y-5156021D02*
X13840686Y-5256021D01*
X13840686Y-5410021D02*
X13940686Y-5510021D01*
X13940686Y-5410021D02*
X13840686Y-5510021D01*
X13840686Y-5664021D02*
X13940686Y-5764021D01*
X13940686Y-5664021D02*
X13840686Y-5764021D01*
X13840686Y-5918021D02*
X13940686Y-6018021D01*
X13940686Y-5918021D02*
X13840686Y-6018021D01*
X13840686Y-6172021D02*
X13940686Y-6272021D01*
X13940686Y-6172021D02*
X13840686Y-6272021D01*
X13840686Y-6426021D02*
X13940686Y-6526021D01*
X13940686Y-6426021D02*
X13840686Y-6526021D01*
X13840686Y-6680021D02*
X13940686Y-6780021D01*
X13940686Y-6680021D02*
X13840686Y-6780021D01*
X13840686Y-6934021D02*
X13940686Y-7034021D01*
X13940686Y-6934021D02*
X13840686Y-7034021D01*
X13840686Y-7188021D02*
X13940686Y-7288021D01*
X13940686Y-7188021D02*
X13840686Y-7288021D01*
X13840686Y-7442021D02*
X13940686Y-7542021D01*
X13940686Y-7442021D02*
X13840686Y-7542021D01*
X13840686Y-7696021D02*
X13940686Y-7796021D01*
X13940686Y-7696021D02*
X13840686Y-7796021D01*
D11*
X11183277Y-8738984D02*
X11183277Y-8538984D01*
X11183277Y-8538984D02*
X11230896Y-8538984D01*
X11230896Y-8538984D02*
X11259467Y-8548508D01*
X11259467Y-8548508D02*
X11278515Y-8567555D01*
X11278515Y-8567555D02*
X11288039Y-8586603D01*
X11288039Y-8586603D02*
X11297562Y-8624698D01*
X11297562Y-8624698D02*
X11297562Y-8653270D01*
X11297562Y-8653270D02*
X11288039Y-8691365D01*
X11288039Y-8691365D02*
X11278515Y-8710412D01*
X11278515Y-8710412D02*
X11259467Y-8729460D01*
X11259467Y-8729460D02*
X11230896Y-8738984D01*
X11230896Y-8738984D02*
X11183277Y-8738984D01*
X11383277Y-8738984D02*
X11383277Y-8605650D01*
X11383277Y-8643746D02*
X11392801Y-8624698D01*
X11392801Y-8624698D02*
X11402324Y-8615174D01*
X11402324Y-8615174D02*
X11421372Y-8605650D01*
X11421372Y-8605650D02*
X11440420Y-8605650D01*
X11507086Y-8738984D02*
X11507086Y-8605650D01*
X11507086Y-8538984D02*
X11497562Y-8548508D01*
X11497562Y-8548508D02*
X11507086Y-8558031D01*
X11507086Y-8558031D02*
X11516610Y-8548508D01*
X11516610Y-8548508D02*
X11507086Y-8538984D01*
X11507086Y-8538984D02*
X11507086Y-8558031D01*
X11630896Y-8738984D02*
X11611848Y-8729460D01*
X11611848Y-8729460D02*
X11602324Y-8710412D01*
X11602324Y-8710412D02*
X11602324Y-8538984D01*
X11735658Y-8738984D02*
X11716610Y-8729460D01*
X11716610Y-8729460D02*
X11707086Y-8710412D01*
X11707086Y-8710412D02*
X11707086Y-8538984D01*
X11964229Y-8738984D02*
X11964229Y-8538984D01*
X11964229Y-8538984D02*
X12030896Y-8681841D01*
X12030896Y-8681841D02*
X12097562Y-8538984D01*
X12097562Y-8538984D02*
X12097562Y-8738984D01*
X12278515Y-8738984D02*
X12278515Y-8634222D01*
X12278515Y-8634222D02*
X12268991Y-8615174D01*
X12268991Y-8615174D02*
X12249943Y-8605650D01*
X12249943Y-8605650D02*
X12211848Y-8605650D01*
X12211848Y-8605650D02*
X12192801Y-8615174D01*
X12278515Y-8729460D02*
X12259467Y-8738984D01*
X12259467Y-8738984D02*
X12211848Y-8738984D01*
X12211848Y-8738984D02*
X12192801Y-8729460D01*
X12192801Y-8729460D02*
X12183277Y-8710412D01*
X12183277Y-8710412D02*
X12183277Y-8691365D01*
X12183277Y-8691365D02*
X12192801Y-8672317D01*
X12192801Y-8672317D02*
X12211848Y-8662793D01*
X12211848Y-8662793D02*
X12259467Y-8662793D01*
X12259467Y-8662793D02*
X12278515Y-8653270D01*
X12373753Y-8605650D02*
X12373753Y-8805650D01*
X12373753Y-8615174D02*
X12392801Y-8605650D01*
X12392801Y-8605650D02*
X12430896Y-8605650D01*
X12430896Y-8605650D02*
X12449943Y-8615174D01*
X12449943Y-8615174D02*
X12459467Y-8624698D01*
X12459467Y-8624698D02*
X12468991Y-8643746D01*
X12468991Y-8643746D02*
X12468991Y-8700889D01*
X12468991Y-8700889D02*
X12459467Y-8719936D01*
X12459467Y-8719936D02*
X12449943Y-8729460D01*
X12449943Y-8729460D02*
X12430896Y-8738984D01*
X12430896Y-8738984D02*
X12392801Y-8738984D01*
X12392801Y-8738984D02*
X12373753Y-8729460D01*
X12554705Y-8719936D02*
X12564229Y-8729460D01*
X12564229Y-8729460D02*
X12554705Y-8738984D01*
X12554705Y-8738984D02*
X12545182Y-8729460D01*
X12545182Y-8729460D02*
X12554705Y-8719936D01*
X12554705Y-8719936D02*
X12554705Y-8738984D01*
X12554705Y-8615174D02*
X12564229Y-8624698D01*
X12564229Y-8624698D02*
X12554705Y-8634222D01*
X12554705Y-8634222D02*
X12545182Y-8624698D01*
X12545182Y-8624698D02*
X12554705Y-8615174D01*
X12554705Y-8615174D02*
X12554705Y-8634222D01*
D12*
X10822500Y-9017500D02*
X10922500Y-9117500D01*
X10922500Y-9017500D02*
X10822500Y-9117500D01*
D11*
X11288039Y-9158984D02*
X11173753Y-9158984D01*
X11230896Y-9158984D02*
X11230896Y-8958984D01*
X11230896Y-8958984D02*
X11211848Y-8987555D01*
X11211848Y-8987555D02*
X11192801Y-9006603D01*
X11192801Y-9006603D02*
X11173753Y-9016127D01*
X11373753Y-9139936D02*
X11383277Y-9149460D01*
X11383277Y-9149460D02*
X11373753Y-9158984D01*
X11373753Y-9158984D02*
X11364229Y-9149460D01*
X11364229Y-9149460D02*
X11373753Y-9139936D01*
X11373753Y-9139936D02*
X11373753Y-9158984D01*
X11507086Y-8958984D02*
X11526134Y-8958984D01*
X11526134Y-8958984D02*
X11545182Y-8968508D01*
X11545182Y-8968508D02*
X11554705Y-8978031D01*
X11554705Y-8978031D02*
X11564229Y-8997079D01*
X11564229Y-8997079D02*
X11573753Y-9035174D01*
X11573753Y-9035174D02*
X11573753Y-9082793D01*
X11573753Y-9082793D02*
X11564229Y-9120889D01*
X11564229Y-9120889D02*
X11554705Y-9139936D01*
X11554705Y-9139936D02*
X11545182Y-9149460D01*
X11545182Y-9149460D02*
X11526134Y-9158984D01*
X11526134Y-9158984D02*
X11507086Y-9158984D01*
X11507086Y-9158984D02*
X11488039Y-9149460D01*
X11488039Y-9149460D02*
X11478515Y-9139936D01*
X11478515Y-9139936D02*
X11468991Y-9120889D01*
X11468991Y-9120889D02*
X11459467Y-9082793D01*
X11459467Y-9082793D02*
X11459467Y-9035174D01*
X11459467Y-9035174D02*
X11468991Y-8997079D01*
X11468991Y-8997079D02*
X11478515Y-8978031D01*
X11478515Y-8978031D02*
X11488039Y-8968508D01*
X11488039Y-8968508D02*
X11507086Y-8958984D01*
X11697562Y-8958984D02*
X11716610Y-8958984D01*
X11716610Y-8958984D02*
X11735658Y-8968508D01*
X11735658Y-8968508D02*
X11745182Y-8978031D01*
X11745182Y-8978031D02*
X11754705Y-8997079D01*
X11754705Y-8997079D02*
X11764229Y-9035174D01*
X11764229Y-9035174D02*
X11764229Y-9082793D01*
X11764229Y-9082793D02*
X11754705Y-9120889D01*
X11754705Y-9120889D02*
X11745182Y-9139936D01*
X11745182Y-9139936D02*
X11735658Y-9149460D01*
X11735658Y-9149460D02*
X11716610Y-9158984D01*
X11716610Y-9158984D02*
X11697562Y-9158984D01*
X11697562Y-9158984D02*
X11678515Y-9149460D01*
X11678515Y-9149460D02*
X11668991Y-9139936D01*
X11668991Y-9139936D02*
X11659467Y-9120889D01*
X11659467Y-9120889D02*
X11649943Y-9082793D01*
X11649943Y-9082793D02*
X11649943Y-9035174D01*
X11649943Y-9035174D02*
X11659467Y-8997079D01*
X11659467Y-8997079D02*
X11668991Y-8978031D01*
X11668991Y-8978031D02*
X11678515Y-8968508D01*
X11678515Y-8968508D02*
X11697562Y-8958984D01*
X11888039Y-8958984D02*
X11907086Y-8958984D01*
X11907086Y-8958984D02*
X11926134Y-8968508D01*
X11926134Y-8968508D02*
X11935658Y-8978031D01*
X11935658Y-8978031D02*
X11945182Y-8997079D01*
X11945182Y-8997079D02*
X11954705Y-9035174D01*
X11954705Y-9035174D02*
X11954705Y-9082793D01*
X11954705Y-9082793D02*
X11945182Y-9120889D01*
X11945182Y-9120889D02*
X11935658Y-9139936D01*
X11935658Y-9139936D02*
X11926134Y-9149460D01*
X11926134Y-9149460D02*
X11907086Y-9158984D01*
X11907086Y-9158984D02*
X11888039Y-9158984D01*
X11888039Y-9158984D02*
X11868991Y-9149460D01*
X11868991Y-9149460D02*
X11859467Y-9139936D01*
X11859467Y-9139936D02*
X11849943Y-9120889D01*
X11849943Y-9120889D02*
X11840420Y-9082793D01*
X11840420Y-9082793D02*
X11840420Y-9035174D01*
X11840420Y-9035174D02*
X11849943Y-8997079D01*
X11849943Y-8997079D02*
X11859467Y-8978031D01*
X11859467Y-8978031D02*
X11868991Y-8968508D01*
X11868991Y-8968508D02*
X11888039Y-8958984D01*
X12040420Y-9158984D02*
X12040420Y-9025650D01*
X12040420Y-9044698D02*
X12049943Y-9035174D01*
X12049943Y-9035174D02*
X12068991Y-9025650D01*
X12068991Y-9025650D02*
X12097563Y-9025650D01*
X12097563Y-9025650D02*
X12116610Y-9035174D01*
X12116610Y-9035174D02*
X12126134Y-9054222D01*
X12126134Y-9054222D02*
X12126134Y-9158984D01*
X12126134Y-9054222D02*
X12135658Y-9035174D01*
X12135658Y-9035174D02*
X12154705Y-9025650D01*
X12154705Y-9025650D02*
X12183277Y-9025650D01*
X12183277Y-9025650D02*
X12202324Y-9035174D01*
X12202324Y-9035174D02*
X12211848Y-9054222D01*
X12211848Y-9054222D02*
X12211848Y-9158984D01*
X12307086Y-9158984D02*
X12307086Y-9025650D01*
X12307086Y-9044698D02*
X12316610Y-9035174D01*
X12316610Y-9035174D02*
X12335658Y-9025650D01*
X12335658Y-9025650D02*
X12364229Y-9025650D01*
X12364229Y-9025650D02*
X12383277Y-9035174D01*
X12383277Y-9035174D02*
X12392801Y-9054222D01*
X12392801Y-9054222D02*
X12392801Y-9158984D01*
X12392801Y-9054222D02*
X12402324Y-9035174D01*
X12402324Y-9035174D02*
X12421372Y-9025650D01*
X12421372Y-9025650D02*
X12449943Y-9025650D01*
X12449943Y-9025650D02*
X12468991Y-9035174D01*
X12468991Y-9035174D02*
X12478515Y-9054222D01*
X12478515Y-9054222D02*
X12478515Y-9158984D01*
X12868991Y-8949460D02*
X12697563Y-9206603D01*
X13126134Y-8958984D02*
X13145182Y-8958984D01*
X13145182Y-8958984D02*
X13164229Y-8968508D01*
X13164229Y-8968508D02*
X13173753Y-8978031D01*
X13173753Y-8978031D02*
X13183277Y-8997079D01*
X13183277Y-8997079D02*
X13192801Y-9035174D01*
X13192801Y-9035174D02*
X13192801Y-9082793D01*
X13192801Y-9082793D02*
X13183277Y-9120889D01*
X13183277Y-9120889D02*
X13173753Y-9139936D01*
X13173753Y-9139936D02*
X13164229Y-9149460D01*
X13164229Y-9149460D02*
X13145182Y-9158984D01*
X13145182Y-9158984D02*
X13126134Y-9158984D01*
X13126134Y-9158984D02*
X13107086Y-9149460D01*
X13107086Y-9149460D02*
X13097563Y-9139936D01*
X13097563Y-9139936D02*
X13088039Y-9120889D01*
X13088039Y-9120889D02*
X13078515Y-9082793D01*
X13078515Y-9082793D02*
X13078515Y-9035174D01*
X13078515Y-9035174D02*
X13088039Y-8997079D01*
X13088039Y-8997079D02*
X13097563Y-8978031D01*
X13097563Y-8978031D02*
X13107086Y-8968508D01*
X13107086Y-8968508D02*
X13126134Y-8958984D01*
X13278515Y-9139936D02*
X13288039Y-9149460D01*
X13288039Y-9149460D02*
X13278515Y-9158984D01*
X13278515Y-9158984D02*
X13268991Y-9149460D01*
X13268991Y-9149460D02*
X13278515Y-9139936D01*
X13278515Y-9139936D02*
X13278515Y-9158984D01*
X13411848Y-8958984D02*
X13430896Y-8958984D01*
X13430896Y-8958984D02*
X13449944Y-8968508D01*
X13449944Y-8968508D02*
X13459467Y-8978031D01*
X13459467Y-8978031D02*
X13468991Y-8997079D01*
X13468991Y-8997079D02*
X13478515Y-9035174D01*
X13478515Y-9035174D02*
X13478515Y-9082793D01*
X13478515Y-9082793D02*
X13468991Y-9120889D01*
X13468991Y-9120889D02*
X13459467Y-9139936D01*
X13459467Y-9139936D02*
X13449944Y-9149460D01*
X13449944Y-9149460D02*
X13430896Y-9158984D01*
X13430896Y-9158984D02*
X13411848Y-9158984D01*
X13411848Y-9158984D02*
X13392801Y-9149460D01*
X13392801Y-9149460D02*
X13383277Y-9139936D01*
X13383277Y-9139936D02*
X13373753Y-9120889D01*
X13373753Y-9120889D02*
X13364229Y-9082793D01*
X13364229Y-9082793D02*
X13364229Y-9035174D01*
X13364229Y-9035174D02*
X13373753Y-8997079D01*
X13373753Y-8997079D02*
X13383277Y-8978031D01*
X13383277Y-8978031D02*
X13392801Y-8968508D01*
X13392801Y-8968508D02*
X13411848Y-8958984D01*
X13545182Y-8958984D02*
X13668991Y-8958984D01*
X13668991Y-8958984D02*
X13602325Y-9035174D01*
X13602325Y-9035174D02*
X13630896Y-9035174D01*
X13630896Y-9035174D02*
X13649944Y-9044698D01*
X13649944Y-9044698D02*
X13659467Y-9054222D01*
X13659467Y-9054222D02*
X13668991Y-9073270D01*
X13668991Y-9073270D02*
X13668991Y-9120889D01*
X13668991Y-9120889D02*
X13659467Y-9139936D01*
X13659467Y-9139936D02*
X13649944Y-9149460D01*
X13649944Y-9149460D02*
X13630896Y-9158984D01*
X13630896Y-9158984D02*
X13573753Y-9158984D01*
X13573753Y-9158984D02*
X13554706Y-9149460D01*
X13554706Y-9149460D02*
X13545182Y-9139936D01*
X13764229Y-9158984D02*
X13802325Y-9158984D01*
X13802325Y-9158984D02*
X13821372Y-9149460D01*
X13821372Y-9149460D02*
X13830896Y-9139936D01*
X13830896Y-9139936D02*
X13849944Y-9111365D01*
X13849944Y-9111365D02*
X13859467Y-9073270D01*
X13859467Y-9073270D02*
X13859467Y-8997079D01*
X13859467Y-8997079D02*
X13849944Y-8978031D01*
X13849944Y-8978031D02*
X13840420Y-8968508D01*
X13840420Y-8968508D02*
X13821372Y-8958984D01*
X13821372Y-8958984D02*
X13783277Y-8958984D01*
X13783277Y-8958984D02*
X13764229Y-8968508D01*
X13764229Y-8968508D02*
X13754706Y-8978031D01*
X13754706Y-8978031D02*
X13745182Y-8997079D01*
X13745182Y-8997079D02*
X13745182Y-9044698D01*
X13745182Y-9044698D02*
X13754706Y-9063746D01*
X13754706Y-9063746D02*
X13764229Y-9073270D01*
X13764229Y-9073270D02*
X13783277Y-9082793D01*
X13783277Y-9082793D02*
X13821372Y-9082793D01*
X13821372Y-9082793D02*
X13840420Y-9073270D01*
X13840420Y-9073270D02*
X13849944Y-9063746D01*
X13849944Y-9063746D02*
X13859467Y-9044698D01*
X14030896Y-9025650D02*
X14030896Y-9158984D01*
X13983277Y-8949460D02*
X13935658Y-9092317D01*
X13935658Y-9092317D02*
X14059467Y-9092317D01*
X14126134Y-8958984D02*
X14126134Y-8997079D01*
X14202325Y-8958984D02*
X14202325Y-8997079D01*
X14497563Y-9235174D02*
X14488039Y-9225650D01*
X14488039Y-9225650D02*
X14468991Y-9197079D01*
X14468991Y-9197079D02*
X14459468Y-9178031D01*
X14459468Y-9178031D02*
X14449944Y-9149460D01*
X14449944Y-9149460D02*
X14440420Y-9101841D01*
X14440420Y-9101841D02*
X14440420Y-9063746D01*
X14440420Y-9063746D02*
X14449944Y-9016127D01*
X14449944Y-9016127D02*
X14459468Y-8987555D01*
X14459468Y-8987555D02*
X14468991Y-8968508D01*
X14468991Y-8968508D02*
X14488039Y-8939936D01*
X14488039Y-8939936D02*
X14497563Y-8930412D01*
X14554706Y-8958984D02*
X14688039Y-8958984D01*
X14688039Y-8958984D02*
X14602325Y-9158984D01*
X14754706Y-8978031D02*
X14764229Y-8968508D01*
X14764229Y-8968508D02*
X14783277Y-8958984D01*
X14783277Y-8958984D02*
X14830896Y-8958984D01*
X14830896Y-8958984D02*
X14849944Y-8968508D01*
X14849944Y-8968508D02*
X14859468Y-8978031D01*
X14859468Y-8978031D02*
X14868991Y-8997079D01*
X14868991Y-8997079D02*
X14868991Y-9016127D01*
X14868991Y-9016127D02*
X14859468Y-9044698D01*
X14859468Y-9044698D02*
X14745182Y-9158984D01*
X14745182Y-9158984D02*
X14868991Y-9158984D01*
X15107087Y-9158984D02*
X15107087Y-8958984D01*
X15192801Y-9158984D02*
X15192801Y-9054222D01*
X15192801Y-9054222D02*
X15183277Y-9035174D01*
X15183277Y-9035174D02*
X15164230Y-9025650D01*
X15164230Y-9025650D02*
X15135658Y-9025650D01*
X15135658Y-9025650D02*
X15116610Y-9035174D01*
X15116610Y-9035174D02*
X15107087Y-9044698D01*
X15316610Y-9158984D02*
X15297563Y-9149460D01*
X15297563Y-9149460D02*
X15288039Y-9139936D01*
X15288039Y-9139936D02*
X15278515Y-9120889D01*
X15278515Y-9120889D02*
X15278515Y-9063746D01*
X15278515Y-9063746D02*
X15288039Y-9044698D01*
X15288039Y-9044698D02*
X15297563Y-9035174D01*
X15297563Y-9035174D02*
X15316610Y-9025650D01*
X15316610Y-9025650D02*
X15345182Y-9025650D01*
X15345182Y-9025650D02*
X15364230Y-9035174D01*
X15364230Y-9035174D02*
X15373753Y-9044698D01*
X15373753Y-9044698D02*
X15383277Y-9063746D01*
X15383277Y-9063746D02*
X15383277Y-9120889D01*
X15383277Y-9120889D02*
X15373753Y-9139936D01*
X15373753Y-9139936D02*
X15364230Y-9149460D01*
X15364230Y-9149460D02*
X15345182Y-9158984D01*
X15345182Y-9158984D02*
X15316610Y-9158984D01*
X15497563Y-9158984D02*
X15478515Y-9149460D01*
X15478515Y-9149460D02*
X15468991Y-9130412D01*
X15468991Y-9130412D02*
X15468991Y-8958984D01*
X15649944Y-9149460D02*
X15630896Y-9158984D01*
X15630896Y-9158984D02*
X15592801Y-9158984D01*
X15592801Y-9158984D02*
X15573753Y-9149460D01*
X15573753Y-9149460D02*
X15564230Y-9130412D01*
X15564230Y-9130412D02*
X15564230Y-9054222D01*
X15564230Y-9054222D02*
X15573753Y-9035174D01*
X15573753Y-9035174D02*
X15592801Y-9025650D01*
X15592801Y-9025650D02*
X15630896Y-9025650D01*
X15630896Y-9025650D02*
X15649944Y-9035174D01*
X15649944Y-9035174D02*
X15659468Y-9054222D01*
X15659468Y-9054222D02*
X15659468Y-9073270D01*
X15659468Y-9073270D02*
X15564230Y-9092317D01*
X15735658Y-9149460D02*
X15754706Y-9158984D01*
X15754706Y-9158984D02*
X15792801Y-9158984D01*
X15792801Y-9158984D02*
X15811849Y-9149460D01*
X15811849Y-9149460D02*
X15821372Y-9130412D01*
X15821372Y-9130412D02*
X15821372Y-9120889D01*
X15821372Y-9120889D02*
X15811849Y-9101841D01*
X15811849Y-9101841D02*
X15792801Y-9092317D01*
X15792801Y-9092317D02*
X15764230Y-9092317D01*
X15764230Y-9092317D02*
X15745182Y-9082793D01*
X15745182Y-9082793D02*
X15735658Y-9063746D01*
X15735658Y-9063746D02*
X15735658Y-9054222D01*
X15735658Y-9054222D02*
X15745182Y-9035174D01*
X15745182Y-9035174D02*
X15764230Y-9025650D01*
X15764230Y-9025650D02*
X15792801Y-9025650D01*
X15792801Y-9025650D02*
X15811849Y-9035174D01*
X15888039Y-9235174D02*
X15897563Y-9225650D01*
X15897563Y-9225650D02*
X15916611Y-9197079D01*
X15916611Y-9197079D02*
X15926134Y-9178031D01*
X15926134Y-9178031D02*
X15935658Y-9149460D01*
X15935658Y-9149460D02*
X15945182Y-9101841D01*
X15945182Y-9101841D02*
X15945182Y-9063746D01*
X15945182Y-9063746D02*
X15935658Y-9016127D01*
X15935658Y-9016127D02*
X15926134Y-8987555D01*
X15926134Y-8987555D02*
X15916611Y-8968508D01*
X15916611Y-8968508D02*
X15897563Y-8939936D01*
X15897563Y-8939936D02*
X15888039Y-8930412D01*
M02*
