%TF.GenerationSoftware,KiCad,Pcbnew,8.0.5*%
%TF.CreationDate,2024-09-24T01:03:50+02:00*%
%TF.ProjectId,RRF_MOT_EXP_ADAPTER,5252465f-4d4f-4545-9f45-58505f414441,rev?*%
%TF.SameCoordinates,Original*%
%TF.FileFunction,Copper,L1,Top*%
%TF.FilePolarity,Positive*%
%FSLAX46Y46*%
G04 Gerber Fmt 4.6, Leading zero omitted, Abs format (unit mm)*
G04 Created by KiCad (PCBNEW 8.0.5) date 2024-09-24 01:03:50*
%MOMM*%
%LPD*%
G01*
G04 APERTURE LIST*
G04 Aperture macros list*
%AMRoundRect*
0 Rectangle with rounded corners*
0 $1 Rounding radius*
0 $2 $3 $4 $5 $6 $7 $8 $9 X,Y pos of 4 corners*
0 Add a 4 corners polygon primitive as box body*
4,1,4,$2,$3,$4,$5,$6,$7,$8,$9,$2,$3,0*
0 Add four circle primitives for the rounded corners*
1,1,$1+$1,$2,$3*
1,1,$1+$1,$4,$5*
1,1,$1+$1,$6,$7*
1,1,$1+$1,$8,$9*
0 Add four rect primitives between the rounded corners*
20,1,$1+$1,$2,$3,$4,$5,0*
20,1,$1+$1,$4,$5,$6,$7,0*
20,1,$1+$1,$6,$7,$8,$9,0*
20,1,$1+$1,$8,$9,$2,$3,0*%
G04 Aperture macros list end*
%TA.AperFunction,ComponentPad*%
%ADD10R,1.700000X1.700000*%
%TD*%
%TA.AperFunction,ComponentPad*%
%ADD11O,1.700000X1.700000*%
%TD*%
%TA.AperFunction,SMDPad,CuDef*%
%ADD12RoundRect,0.250000X-0.625000X0.400000X-0.625000X-0.400000X0.625000X-0.400000X0.625000X0.400000X0*%
%TD*%
%TA.AperFunction,SMDPad,CuDef*%
%ADD13RoundRect,0.250000X0.625000X-0.400000X0.625000X0.400000X-0.625000X0.400000X-0.625000X-0.400000X0*%
%TD*%
%TA.AperFunction,SMDPad,CuDef*%
%ADD14RoundRect,0.250000X-0.400000X-0.625000X0.400000X-0.625000X0.400000X0.625000X-0.400000X0.625000X0*%
%TD*%
%TA.AperFunction,ComponentPad*%
%ADD15C,1.700000*%
%TD*%
%TA.AperFunction,ComponentPad*%
%ADD16RoundRect,0.250000X-0.600000X-0.600000X0.600000X-0.600000X0.600000X0.600000X-0.600000X0.600000X0*%
%TD*%
%TA.AperFunction,Conductor*%
%ADD17C,0.200000*%
%TD*%
G04 APERTURE END LIST*
D10*
%TO.P,J1,1,Pin_1*%
%TO.N,/M1_DIAG*%
X134407529Y-79336527D03*
D11*
%TO.P,J1,2,Pin_2*%
%TO.N,/M2_DIAG*%
X131867529Y-79336527D03*
%TD*%
D12*
%TO.P,R7,1*%
%TO.N,/0.18*%
X123000000Y-47150000D03*
%TO.P,R7,2*%
%TO.N,Net-(U1-D7(GPIO13))*%
X123000000Y-50250000D03*
%TD*%
%TO.P,R3,1*%
%TO.N,/0.17*%
X117750000Y-53950000D03*
%TO.P,R3,2*%
%TO.N,Net-(U1-D6(GPIO12))*%
X117750000Y-57050000D03*
%TD*%
%TO.P,R1,1*%
%TO.N,Net-(U1-RST)*%
X134750000Y-48450000D03*
%TO.P,R1,2*%
%TO.N,/GND*%
X134750000Y-51550000D03*
%TD*%
%TO.P,R6,1*%
%TO.N,/0.16*%
X119500000Y-47200000D03*
%TO.P,R6,2*%
%TO.N,Net-(U1-D8(GPIO15))*%
X119500000Y-50300000D03*
%TD*%
D13*
%TO.P,R2,1*%
%TO.N,Net-(U1-RST)*%
X134750000Y-43300000D03*
%TO.P,R2,2*%
%TO.N,/1.31*%
X134750000Y-40200000D03*
%TD*%
D14*
%TO.P,R4,1*%
%TO.N,/0.28*%
X114950000Y-75750000D03*
%TO.P,R4,2*%
%TO.N,Net-(U1-D3(GPIO0))*%
X118050000Y-75750000D03*
%TD*%
D15*
%TO.P,U1,1,A0(ADC0)*%
%TO.N,unconnected-(U1-A0(ADC0)-Pad1)*%
X138906861Y-77460211D03*
%TO.P,U1,2,RSV*%
%TO.N,unconnected-(U1-RSV-Pad2)*%
X138906861Y-74920211D03*
%TO.P,U1,3,RSV*%
%TO.N,unconnected-(U1-RSV-Pad3)*%
X138906861Y-72380211D03*
%TO.P,U1,4,SD3(GPIO10)*%
%TO.N,unconnected-(U1-SD3(GPIO10)-Pad4)*%
X138906861Y-69840211D03*
%TO.P,U1,5,SD2(GPIO9)*%
%TO.N,unconnected-(U1-SD2(GPIO9)-Pad5)*%
X138906861Y-67300211D03*
%TO.P,U1,6,SD1(MOSI)*%
%TO.N,unconnected-(U1-SD1(MOSI)-Pad6)*%
X138906861Y-64760211D03*
%TO.P,U1,7,CMD(CS)*%
%TO.N,unconnected-(U1-CMD(CS)-Pad7)*%
X138906861Y-62220211D03*
%TO.P,U1,8,SDO(MISO)*%
%TO.N,unconnected-(U1-SDO(MISO)-Pad8)*%
X138906861Y-59680211D03*
%TO.P,U1,9,CLK(SCLK)*%
%TO.N,unconnected-(U1-CLK(SCLK)-Pad9)*%
X138906861Y-57140211D03*
%TO.P,U1,10,GND*%
%TO.N,/GND*%
X138906861Y-54600211D03*
%TO.P,U1,11,3.3V*%
%TO.N,unconnected-(U1-3.3V-Pad11)*%
X138906861Y-52060211D03*
%TO.P,U1,12,EN*%
%TO.N,unconnected-(U1-EN-Pad12)*%
X138906861Y-49520211D03*
%TO.P,U1,13,RST*%
%TO.N,Net-(U1-RST)*%
X138906861Y-46980211D03*
%TO.P,U1,14,GND*%
%TO.N,unconnected-(U1-GND-Pad14)*%
X138906861Y-44440211D03*
%TO.P,U1,15,VIN*%
%TO.N,/+5V*%
X138906861Y-41900211D03*
%TO.P,U1,16,3.3V*%
%TO.N,unconnected-(U1-3.3V-Pad16)*%
X110966861Y-41900211D03*
%TO.P,U1,17,GND*%
%TO.N,unconnected-(U1-GND-Pad17)*%
X110966861Y-44440211D03*
%TO.P,U1,18,TX(GPIO1)*%
%TO.N,unconnected-(U1-TX(GPIO1)-Pad18)*%
X110966861Y-46980211D03*
%TO.P,U1,19,RX(DPIO3)*%
%TO.N,unconnected-(U1-RX(DPIO3)-Pad19)*%
X110966861Y-49520211D03*
%TO.P,U1,20,D8(GPIO15)*%
%TO.N,Net-(U1-D8(GPIO15))*%
X110966861Y-52060211D03*
%TO.P,U1,21,D7(GPIO13)*%
%TO.N,Net-(U1-D7(GPIO13))*%
X110966861Y-54600211D03*
%TO.P,U1,22,D6(GPIO12)*%
%TO.N,Net-(U1-D6(GPIO12))*%
X110966861Y-57140211D03*
%TO.P,U1,23,D5(GPIO14)*%
%TO.N,Net-(U1-D5(GPIO14))*%
X110966861Y-59680211D03*
%TO.P,U1,24,GND*%
%TO.N,unconnected-(U1-GND-Pad24)*%
X110966861Y-62220211D03*
%TO.P,U1,25,3.3V*%
%TO.N,unconnected-(U1-3.3V-Pad25)*%
X110966861Y-64760211D03*
%TO.P,U1,26,D4(GPIO2)*%
%TO.N,unconnected-(U1-D4(GPIO2)-Pad26)*%
X110966861Y-67300211D03*
%TO.P,U1,27,D3(GPIO0)*%
%TO.N,Net-(U1-D3(GPIO0))*%
X110966861Y-69840211D03*
%TO.P,U1,28,D2(GPIO4)*%
%TO.N,/1.30*%
X110966861Y-72380211D03*
%TO.P,U1,29,D1(GPIO5)*%
%TO.N,unconnected-(U1-D1(GPIO5)-Pad29)*%
X110966861Y-74920211D03*
%TO.P,U1,30,D0(GPIO16)*%
%TO.N,unconnected-(U1-D0(GPIO16)-Pad30)*%
X110966861Y-77460211D03*
%TD*%
D12*
%TO.P,R5,1*%
%TO.N,/0.15*%
X114500000Y-53950000D03*
%TO.P,R5,2*%
%TO.N,Net-(U1-D5(GPIO14))*%
X114500000Y-57050000D03*
%TD*%
D16*
%TO.P,MOT1,1,Pin_1*%
%TO.N,/M3_DIAG*%
X129071122Y-72374585D03*
D15*
%TO.P,MOT1,2,Pin_2*%
%TO.N,/M3_RX*%
X126531122Y-72374585D03*
%TO.P,MOT1,3,Pin_3*%
%TO.N,/M2_DIAG*%
X129071122Y-69834585D03*
%TO.P,MOT1,4,Pin_4*%
%TO.N,/3.26 M2_UART*%
X126531122Y-69834585D03*
%TO.P,MOT1,5,Pin_5*%
%TO.N,/M1_DIAG*%
X129071122Y-67294585D03*
%TO.P,MOT1,6,Pin_6*%
%TO.N,/3.25 M1_UART*%
X126531122Y-67294585D03*
%TO.P,MOT1,7,Pin_7*%
%TO.N,/M3_EN*%
X129071122Y-64754585D03*
%TO.P,MOT1,8,Pin_8*%
%TO.N,/1.23 M2_EN*%
X126531122Y-64754585D03*
%TO.P,MOT1,9,Pin_9*%
%TO.N,/GND*%
X129071122Y-62214585D03*
%TO.P,MOT1,10,Pin_10*%
%TO.N,unconnected-(MOT1-Pin_10-Pad10)*%
X126531122Y-62214585D03*
%TD*%
D16*
%TO.P,MOT2,1,Pin_1*%
%TO.N,/M3_STEP*%
X129049618Y-51409734D03*
D15*
%TO.P,MOT2,2,Pin_2*%
%TO.N,/M3_DIR*%
X126509618Y-51409734D03*
%TO.P,MOT2,3,Pin_3*%
%TO.N,/1.20 M2_STP*%
X129049618Y-48869734D03*
%TO.P,MOT2,4,Pin_4*%
%TO.N,/1.22 M2_DIR*%
X126509618Y-48869734D03*
%TO.P,MOT2,5,Pin_5*%
%TO.N,/1.19 M1_DIR*%
X129049618Y-46329734D03*
%TO.P,MOT2,6,Pin_6*%
%TO.N,/1.21 M1_STEP*%
X126509618Y-46329734D03*
%TO.P,MOT2,7,Pin_7*%
%TO.N,/1.18 M1_EN*%
X129049618Y-43789734D03*
%TO.P,MOT2,8,Pin_8*%
%TO.N,unconnected-(MOT2-Pin_8-Pad8)*%
X126509618Y-43789734D03*
%TO.P,MOT2,9,Pin_9*%
%TO.N,/GND*%
X129049618Y-41249734D03*
%TO.P,MOT2,10,Pin_10*%
%TO.N,unconnected-(MOT2-Pin_10-Pad10)*%
X126509618Y-41249734D03*
%TD*%
D16*
%TO.P,EXP2,1,Pin_1*%
%TO.N,/0.17*%
X116263646Y-51290940D03*
D15*
%TO.P,EXP2,2,Pin_2*%
%TO.N,/0.15*%
X113723646Y-51290940D03*
%TO.P,EXP2,3,Pin_3*%
%TO.N,/3.26 M2_UART*%
X116263646Y-48750940D03*
%TO.P,EXP2,4,Pin_4*%
%TO.N,/0.16*%
X113723646Y-48750940D03*
%TO.P,EXP2,5,Pin_5*%
%TO.N,/3.25 M1_UART*%
X116263646Y-46210940D03*
%TO.P,EXP2,6,Pin_6*%
%TO.N,/0.18*%
X113723646Y-46210940D03*
%TO.P,EXP2,7,Pin_7*%
%TO.N,/1.31*%
X116263646Y-43670940D03*
%TO.P,EXP2,8,Pin_8*%
%TO.N,/RESET*%
X113723646Y-43670940D03*
%TO.P,EXP2,9,Pin_9*%
%TO.N,/GND*%
X116263646Y-41130940D03*
%TO.P,EXP2,10,Pin_10*%
%TO.N,/NC*%
X113723646Y-41130940D03*
%TD*%
D16*
%TO.P,EXP1,1,Pin_1*%
%TO.N,/1.30*%
X116266006Y-72281948D03*
D15*
%TO.P,EXP1,2,Pin_2*%
%TO.N,/0.28*%
X113726006Y-72281948D03*
%TO.P,EXP1,3,Pin_3*%
%TO.N,/1.18 M1_EN*%
X116266006Y-69741948D03*
%TO.P,EXP1,4,Pin_4*%
%TO.N,/1.19 M1_DIR*%
X113726006Y-69741948D03*
%TO.P,EXP1,5,Pin_5*%
%TO.N,/1.20 M2_STP*%
X116266006Y-67201948D03*
%TO.P,EXP1,6,Pin_6*%
%TO.N,/1.21 M1_STEP*%
X113726006Y-67201948D03*
%TO.P,EXP1,7,Pin_7*%
%TO.N,/1.22 M2_DIR*%
X116266006Y-64661948D03*
%TO.P,EXP1,8,Pin_8*%
%TO.N,/1.23 M2_EN*%
X113726006Y-64661948D03*
%TO.P,EXP1,9,Pin_9*%
%TO.N,/GND*%
X116266006Y-62121948D03*
%TO.P,EXP1,10,Pin_10*%
%TO.N,/+5V*%
X113726006Y-62121948D03*
%TD*%
D17*
%TO.N,/0.28*%
X114950000Y-73384872D02*
X114950000Y-75750000D01*
X113725128Y-72160000D02*
X114950000Y-73384872D01*
%TO.N,/1.30*%
X112750000Y-75359744D02*
X112750000Y-73490000D01*
X116265128Y-72160000D02*
X116265128Y-76244616D01*
X114390256Y-77000000D02*
X112750000Y-75359744D01*
X116265128Y-76244616D02*
X115509744Y-77000000D01*
X115509744Y-77000000D02*
X114390256Y-77000000D01*
X112750000Y-73490000D02*
X111500000Y-72240000D01*
%TO.N,/+5V*%
X121900404Y-73750000D02*
X116650404Y-68500000D01*
X140150000Y-43180000D02*
X140150000Y-55184138D01*
X140150000Y-55184138D02*
X139451071Y-55883067D01*
X130900000Y-63100000D02*
X130900000Y-72530451D01*
X139451071Y-55883067D02*
X138116933Y-55883067D01*
X112576006Y-67826006D02*
X112576006Y-63271948D01*
X112576006Y-63271948D02*
X113726006Y-62121948D01*
X138116933Y-55883067D02*
X130900000Y-63100000D01*
X116650404Y-68500000D02*
X113250000Y-68500000D01*
X113250000Y-68500000D02*
X112576006Y-67826006D01*
X129680451Y-73750000D02*
X121900404Y-73750000D01*
X130900000Y-72530451D02*
X129680451Y-73750000D01*
X138970000Y-42000000D02*
X140150000Y-43180000D01*
%TO.N,/GND*%
X134750000Y-51550000D02*
X130368572Y-47168572D01*
X130368572Y-43482342D02*
X129386230Y-42500000D01*
X129049618Y-41249734D02*
X129049618Y-42450382D01*
X117323369Y-61064585D02*
X127921122Y-61064585D01*
X136530000Y-51550000D02*
X139440000Y-54460000D01*
X117632706Y-42500000D02*
X116263646Y-41130940D01*
X130368572Y-47168572D02*
X130368572Y-43482342D01*
X129049618Y-42450382D02*
X129000000Y-42500000D01*
X129000000Y-42500000D02*
X117632706Y-42500000D01*
X129386230Y-42500000D02*
X129000000Y-42500000D01*
X116266006Y-62121948D02*
X117323369Y-61064585D01*
X127921122Y-61064585D02*
X129071122Y-62214585D01*
X134750000Y-51550000D02*
X136530000Y-51550000D01*
%TO.N,/1.31*%
X134750000Y-40200000D02*
X134508828Y-39958828D01*
X116263646Y-43670940D02*
X115113646Y-42520940D01*
X134508828Y-39958828D02*
X115809412Y-39958828D01*
X115113646Y-42520940D02*
X115113646Y-40654594D01*
X115113646Y-40654594D02*
X115809412Y-39958828D01*
%TO.N,/0.17*%
X117750000Y-53950000D02*
X117750000Y-52777294D01*
X117750000Y-52777294D02*
X116263646Y-51290940D01*
%TO.N,/0.15*%
X114500000Y-52067294D02*
X113723646Y-51290940D01*
X114500000Y-53950000D02*
X114500000Y-52067294D01*
%TO.N,/0.16*%
X113723646Y-48750940D02*
X114637300Y-48750940D01*
X114637300Y-48750940D02*
X115787300Y-47600940D01*
X119500000Y-47200000D02*
X119099060Y-47600940D01*
X119099060Y-47600940D02*
X115787300Y-47600940D01*
%TO.N,/0.18*%
X113723646Y-46210940D02*
X114873646Y-45060940D01*
X120910940Y-45060940D02*
X123000000Y-47150000D01*
X114873646Y-45060940D02*
X120910940Y-45060940D01*
%TO.N,Net-(U1-RST)*%
X134750000Y-48450000D02*
X137830000Y-48450000D01*
X137830000Y-48450000D02*
X139440000Y-46840000D01*
X134750000Y-48450000D02*
X134750000Y-43300000D01*
%TO.N,Net-(U1-D6(GPIO12))*%
X111500000Y-57000000D02*
X112400000Y-56100000D01*
X112400000Y-56100000D02*
X116800000Y-56100000D01*
X116800000Y-56100000D02*
X117750000Y-57050000D01*
%TO.N,Net-(U1-D3(GPIO0))*%
X118050000Y-71960128D02*
X118050000Y-75750000D01*
X117089872Y-71000000D02*
X118050000Y-71960128D01*
X111500000Y-69700000D02*
X112800000Y-71000000D01*
X112800000Y-71000000D02*
X117089872Y-71000000D01*
%TO.N,Net-(U1-D5(GPIO14))*%
X113750000Y-57290000D02*
X111500000Y-59540000D01*
%TO.N,Net-(U1-D8(GPIO15))*%
X111500000Y-51888240D02*
X113388240Y-50000000D01*
X111500000Y-51920000D02*
X111500000Y-51888240D01*
X119200000Y-50000000D02*
X113388240Y-50000000D01*
X119500000Y-50300000D02*
X119200000Y-50000000D01*
%TO.N,Net-(U1-D7(GPIO13))*%
X111500000Y-54460000D02*
X112590000Y-55550000D01*
X112590000Y-55550000D02*
X118750000Y-55550000D01*
X118750000Y-55550000D02*
X123000000Y-51300000D01*
X123000000Y-51300000D02*
X123000000Y-50250000D01*
%TO.N,/1.23 M2_EN*%
X127832528Y-69269645D02*
X127116604Y-68553721D01*
X123235033Y-71050719D02*
X127199281Y-71050719D01*
X127199281Y-71050719D02*
X127832528Y-70417472D01*
X127116604Y-68553721D02*
X125983788Y-68553721D01*
X127832528Y-70417472D02*
X127832528Y-69269645D01*
X125263501Y-67833434D02*
X125263501Y-66022206D01*
X126459093Y-64682556D02*
X126531122Y-64754585D01*
X117996262Y-65811948D02*
X123235033Y-71050719D01*
X125263501Y-66022206D02*
X126531122Y-64754585D01*
X113726006Y-64661948D02*
X114876006Y-65811948D01*
X125983788Y-68553721D02*
X125263501Y-67833434D01*
X114876006Y-65811948D02*
X117996262Y-65811948D01*
%TO.N,/3.25 M1_UART*%
X123300000Y-49300000D02*
X124050000Y-49300000D01*
X125357113Y-56607113D02*
X130500000Y-61750000D01*
X127681122Y-66144585D02*
X126531122Y-67294585D01*
X130500000Y-61750000D02*
X130500000Y-65192053D01*
X120320684Y-46210940D02*
X121825000Y-47715256D01*
X129547468Y-66144585D02*
X127681122Y-66144585D01*
X125357113Y-50607113D02*
X125357113Y-56607113D01*
X121825000Y-47825000D02*
X123300000Y-49300000D01*
X121825000Y-47715256D02*
X121825000Y-47825000D01*
X130500000Y-65192053D02*
X129547468Y-66144585D01*
X124050000Y-49300000D02*
X125357113Y-50607113D01*
X116263646Y-46210940D02*
X120320684Y-46210940D01*
%TD*%
M02*
